/* XPM */
static char *rcp08382899759605[] = {
/* columns rows colors chars-per-pixel */
"40 40 190 2 ",
"   c #5C3C44",
".  c #603E47",
"X  c #6A3F48",
"o  c #6B3C42",
"O  c #763F4F",
"+  c #5E474D",
"@  c #5F484E",
"#  c #5E4C52",
"$  c #614345",
"%  c #6C4446",
"&  c #64444A",
"*  c #6B454A",
"=  c #6E4A4C",
"-  c #684948",
";  c #734C4C",
":  c #7C4D4D",
">  c #734145",
",  c #6E504E",
"<  c #7E5846",
"1  c #7B534B",
"2  c #785645",
"3  c #6C4D52",
"4  c #794751",
"5  c #7E4954",
"6  c #7D5452",
"7  c #775659",
"8  c #785559",
"9  c #765B59",
"0  c #786568",
"q  c #7D6C71",
"w  c #804D4D",
"e  c #835A4E",
"r  c #84594A",
"t  c #844F50",
"y  c #835650",
"u  c #865950",
"i  c #8C5E52",
"p  c #915F52",
"a  c #8D644A",
"s  c #9C6A4D",
"d  c #9A7542",
"f  c #8C6253",
"g  c #816C52",
"h  c #946554",
"j  c #986353",
"k  c #946954",
"l  c #9D6955",
"z  c #986659",
"x  c #9D6A59",
"c  c #9D7A55",
"v  c #A26E4E",
"b  c #A5734F",
"n  c #A26E56",
"m  c #A16D59",
"M  c #A27254",
"N  c #A87855",
"B  c #A4735B",
"V  c #A9745B",
"C  c #AC7B5B",
"Z  c #B27E5E",
"A  c #866C65",
"S  c #876C6C",
"D  c #8C6B6E",
"F  c #81646F",
"G  c #98616C",
"H  c #8B706C",
"J  c #8C6D72",
"K  c #8B7273",
"L  c #8E7778",
"P  c #937473",
"I  c #977B70",
"U  c #937C7B",
"Y  c #9B7C7B",
"T  c #A77C61",
"R  c #958058",
"E  c #AD824E",
"W  c #AF8A42",
"Q  c #B08349",
"!  c #AF8357",
"~  c #AF815C",
"^  c #B78852",
"/  c #B5815E",
"(  c #B48A5D",
")  c #B88C55",
"_  c #BB925C",
"`  c #B49353",
"'  c #9D807A",
"]  c #AF8566",
"[  c #B38463",
"{  c #BD9466",
"}  c #B5976F",
"|  c #B8916D",
" . c #BA8C73",
".. c #BD9B72",
"X. c #C1985E",
"o. c #D0AB50",
"O. c #D9B653",
"+. c #C09661",
"@. c #C29C6A",
"#. c #C49C63",
"$. c #CFA761",
"%. c #CEAE6D",
"&. c #C4A96D",
"*. c #CAB46C",
"=. c #D6B468",
"-. c #C6A474",
";. c #CAAD7D",
":. c #C5A578",
">. c #CEB27D",
",. c #D5B575",
"<. c #D3B77C",
"1. c #D6BB7D",
"2. c #D9BC75",
"3. c #E2C266",
"4. c #E4C879",
"5. c #EAD27A",
"6. c #8F7680",
"7. c #928B8F",
"8. c #9A9188",
"9. c #978E93",
"0. c #9B9397",
"q. c #A88680",
"w. c #A58B84",
"e. c #AC8A83",
"r. c #B08C8B",
"t. c #B19088",
"y. c #A09598",
"u. c #AA9D9C",
"i. c #A69997",
"p. c #BD9B92",
"a. c #BFA381",
"s. c #ACA09B",
"d. c #ADA4A5",
"f. c #ACA6AA",
"g. c #B2ABA4",
"h. c #B3ABAA",
"j. c #B7B2A9",
"k. c #BFB8BA",
"l. c #B9B4B7",
"z. c #C19F98",
"x. c #C69390",
"c. c #CAAF80",
"v. c #D4BB87",
"b. c #C9A69C",
"n. c #CDAA9F",
"m. c #C3A398",
"M. c #D0AEA0",
"N. c #D4B3A5",
"B. c #D8B6A6",
"V. c #D3B5AA",
"C. c #DCBBAB",
"Z. c #DBB7A9",
"A. c #C3BCBE",
"S. c #DABCB0",
"D. c #E1BEAD",
"F. c #E1BFB0",
"G. c #CDC28C",
"H. c #DCC489",
"J. c #D5CA90",
"K. c #DDD192",
"L. c #E1C786",
"P. c #E1CA85",
"I. c #E6D08A",
"U. c #EAD793",
"Y. c #DFC4B9",
"T. c #E4C1AE",
"R. c #E4C2B1",
"E. c #E8CBBC",
"W. c #F1CDB8",
"Q. c #F5E7A3",
"!. c #CAC6C9",
"~. c #D0CBCE",
"^. c #DEDCDD",
"/. c #E6CDC0",
"(. c #EBD2C5",
"). c #E0DEDF",
"_. c #F0DED4",
"`. c #E1DFE0",
"'. c #EEEDEE",
"]. c #E5E3E4",
"[. c #F0EEEF",
"{. c #F0EFF0",
"}. c #F5F5F5",
"|. c #F3F2F3",
" X c #FAFAFB",
".X c #F9F9F9",
"XX c white",
"oX c #FEFEFE",
"OX c gray99",
"+X c #FFFFFF",
/* pixels */
"XXXXXXXXXXXXXXXXXXXXXXXXXXXXXXXXXXXXXXXXXXXXXXXXXXXXXXXXXXXXXXXXXXXXXXXXXXXXXXXX",
"XXXXXXXXXXXXXXXXXXXXXXXXXXXXXXXXXX.X^.8.g..XXXXXXXXXXXXXXXXXXXXXXXXXXXXXXXXXXXXX",
"XXXXXXXXXXXXXXXXXXXXXXXXXXXXXXXX}.j.R a.G.g..XXXXXXXXXXXXXXXXXXXXXXXXXXXXXXXXXXX",
"XXXXXXXXXXXXXXXXXXXXXXXXXXXX.Xk.g *.O.o.5.K.g..XXXXXXXXXXXXXXXXXXXXXXXXXXXXXXXXX",
"XXXXXXXXXXXXXXXXXXXXXXXX|.A.9 e s v k E =.4.` s..XXXXXXXXXXXXXXXXXXXXXXXXXXXXXXX",
"XXXXXXXXXXXXXXXXXXXX'.h.H e j j j j j j j j p h u..XXXXXXXXXXXXXXXXXXXXXXXXXXXXX",
"XXXXXXXXXXXXXXXXXXd.A f h j j j j j j j j j j j k u.XXXXXXXXXXXXXXXXXXXXXXXXXXXX",
"XXXXXXXXXXXX}.k.9 x j j j j j j j j j j j j j j j l u.XXXXXXXXXXXXXXXXXXXXXXXXXX",
"XXXXXXXX}.A.0 i j j j j j j j j j j j j j j j j j j l d.XXXXXXXXXXXXXXXXXXXXXXXX",
"XXXXXX].A f j j j j j j j j j j j j j j j j j j j j j k i.XXXXXXXXXXXXXXXXXXXXXX",
"XXXX`.I Z V j j j j j j j j j j j | H.;.;.c.-.#.E / j j k u.XXXXXXXXXXXXXXXXXXXX",
"XXXX0.l / Z l j j j j j j j j j ..2.( ] <.H.;.v.1.^ j j j k g..XXXXXXXXXXXXXXXXX",
"XXXX+ u C / Z l j j j j j j j B <.C >.....U.C @.X.b j j j j h h..XXXXXXXXXXXXXXX",
"XXXX+ ; y C / Z l j j j j j j ;.! P.Q.j j I.( @.C / +.l j j j h y.XXXXXXXXXXXXXX",
"XXXX+ & ; y V / Z l j j j j B %...1.U.I.I.,.~ %.B l ,.l j j j m 6 i.XXXXXXXXXXXX",
"XXXX+ & ; ; u C / Z l j j j M { :.T C ( _ ~ -.( j j j j j j j x 6 f h..XXXXXXXXX",
"XXXX@   & ; ; u C [ Z l j j n ) 4.;.-.;.=.{ l 5.C j j j j j x i y j r g.XXXXXXXX",
"XXXXf.  & ; ; ; y Z / Z l j l N _ l Q M j j j j j j j j j j j z p j E &.g.XXXXXX",
"XXXX|.U % & & 1 ; 6 l Z Z l l n l j j X.@.j j j j j j j j j j j j j ( } J.h.XXXX",
"XXXXXX{.U % < W = ; ; k Z Z l j j j j C [ j j j j j j j j j j j j j 3.,.L.A XXXX",
"XXXXXXXX|.L : % 2 ; ; ; j / Z l j j j j j j j j j j j j j j j j j i $. .5 F XXXX",
"XXXXXXXXXX'.K ; 1 ; ; ; : l / Z l j j j j j j j j j j j j j j j j 6 w 8 P 7.XXXX",
"XXXXXXXXXXXX|.K : ; ; ; ; ; l / Z l j j j j j j j j j j j j l m i - w.B.w.).XXXX",
"XXXXXXXXXXXXXX[.U t ; ; ; ; ; j / Z l j j j j j j j j j l B e = U C.W.T.U XXXXXX",
"XXXXXXXXXXXXXXXX|.J : ; ; ; ; ; j Z Z l j j j j l l l l e 7 ' V.(.D.Z.D.U XXXXXX",
"XXXXXXXXXXXXXXXXXX'.P : ; a ; ; ; l / C n l j l n m e , S m.C.C.S.Y.C.T.p.l.XXXX",
"XXXXXXXXXXXXXXXXXXXX'.D w = c < ; ; x / Z V l B f $ S Z.R.Z.N.E._.V.Z.x.G 9.XXXX",
"XXXXXXXXXXXXXXXXXXXXXX[.J w d 2 * ; ; l Z Z f $ P R.W./.C.C.E.V.n.p.4 O 6.XXXXXX",
"XXXXXXXXXXXXXXXXXXXXXXXX'.K : = = ; ; 1 l u D M.D.T.T.F.D.B.b.e.7   q ~.}.XXXXXX",
"XXXXXXXXXXXXXXXXXXXXXXXXXX'.J : ; ; ; ; 1 P D.T.R.D.(.Z.n.q.9 & 0 k.XXXXXXXXXXXX",
"XXXXXXXXXXXXXXXXXXXXXXXXXXXX|.S ; = = = % Y D.n.V.b.N.t.7 & q k.XXXXXXXXXXXXXXXX",
"XXXXXXXXXXXXXXXXXXXXXXXXXXXXXX{.S % * . % P r.z.M.p.3 $ 0 !.}.XXXXXXXXXXXXXXXXXX",
"XXXXXXXXXXXXXXXXXXXXXXXXXXXXXXXX[.D X . > Y p.P 7 & # ~.}.XXXXXXXXXXXXXXXXXXXXXX",
"XXXXXXXXXXXXXXXXXXXXXXXXXXXXXXXXXX'.J * % 3 - & 0 l.XXXXXXXXXXXXXXXXXXXXXXXXXXXX",
"XXXXXXXXXXXXXXXXXXXXXXXXXXXXXXXXXXXX|.A.K o q k.{.XXXXXXXXXXXXXXXXXXXXXXXXXXXXXX",
"XXXXXXXXXXXXXXXXXXXXXXXXXXXXXXXXXXXXXXXXXXXXXXXXXXXXXXXXXXXXXXXXXXXXXXXXXXXXXXXX",
"XXXXXXXXXXXXXXXXXXXXXXXXXXXXXXXXXXXXXXXXXXXXXXXXXXXXXXXXXXXXXXXXXXXXXXXXXXXXXXXX",
"XXXXXXXXXXXXXXXXXXXXXXXXXXXXXXXXXXXXXXXXXXXXXXXXXXXXXXXXXXXXXXXXXXXXXXXXXXXXXXXX",
"XXXXXXXXXXXXXXXXXXXXXXXXXXXXXXXXXXXXXXXXXXXXXXXXXXXXXXXXXXXXXXXXXXXXXXXXXXXXXXXX",
"XXXXXXXXXXXXXXXXXXXXXXXXXXXXXXXXXXXXXXXXXXXXXXXXXXXXXXXXXXXXXXXXXXXXXXXXXXXXXXXX"
};
