/* XPM */
static char *strawberrycake[] = {
/* columns rows colors chars-per-pixel */
"40 40 174 2 ",
"   c #4F0136",
".  c #6D0A2E",
"X  c #630E2D",
"o  c #760728",
"O  c #63102F",
"+  c #631231",
"@  c #651939",
"#  c #6D1E3B",
"$  c #6F203D",
"%  c #72213C",
"&  c #79253E",
"*  c #6C1E40",
"=  c #6A1F4C",
"-  c #6F2147",
";  c #6B214C",
":  c #7B2B48",
">  c #782B47",
",  c #7B314D",
"<  c #931E1E",
"1  c #901314",
"2  c #A80F19",
"3  c #AA1018",
"4  c #8A1D24",
"5  c #941329",
"6  c #A91622",
"7  c #BE1E27",
"8  c #952121",
"9  c #82283E",
"0  c #B72D2A",
"q  c #A2243B",
"w  c #C9140D",
"e  c #CF1F18",
"r  c #CE211C",
"t  c #D1231D",
"y  c #E5261C",
"u  c #CD2B27",
"i  c #D0352F",
"p  c #D83F3C",
"a  c #E63329",
"s  c #E83429",
"d  c #F5362D",
"f  c #F53D35",
"g  c #F93A31",
"h  c #F7463F",
"j  c #F8433B",
"k  c #8B2D41",
"l  c #8E3448",
"z  c #953244",
"x  c #9C3543",
"c  c #803550",
"v  c #8A3050",
"b  c #8A3F5B",
"n  c #943558",
"m  c #A73D4B",
"M  c #A43F63",
"N  c #8A435E",
"B  c #93425E",
"V  c #A4404D",
"C  c #B04049",
"Z  c #BB4649",
"A  c #AB4451",
"S  c #BA4B57",
"D  c #B25357",
"F  c #8D4961",
"G  c #944C66",
"H  c #93546B",
"J  c #965D72",
"K  c #AA466A",
"L  c #AF4F71",
"P  c #BD7578",
"I  c #C54847",
"U  c #C24B50",
"Y  c #F64B44",
"T  c #FA4B43",
"R  c #F6544B",
"E  c #F75F4F",
"W  c #FB544C",
"Q  c #F86150",
"!  c #F8655E",
"~  c #C55B66",
"^  c #C65E6A",
"/  c #DC5F60",
"(  c #D55C60",
")  c #DD6364",
"_  c #DD666B",
"`  c #D66162",
"'  c #C5627C",
"]  c #DC6673",
"[  c #DD7B7E",
"{  c #E46C6F",
"}  c #E06566",
"|  c #E16E76",
" . c #E67274",
".. c #E07877",
"X. c #E97778",
"o. c #E9787A",
"O. c #E1777C",
"+. c #FD8B6A",
"@. c #BC7E95",
"#. c #CA6A80",
"$. c #EB7B85",
"%. c #EC7D89",
"&. c #E67682",
"*. c #BD8499",
"=. c #C98585",
"-. c #CD8495",
";. c #EE8186",
":. c #ED828B",
">. c #E7858C",
",. c #F38689",
"<. c #EE8592",
"1. c #E18A92",
"2. c #F18B95",
"3. c #F28E9C",
"4. c #F08599",
"5. c #E9949D",
"6. c #E29798",
"7. c #F4929D",
"8. c #C88DA3",
"9. c #DE9CA7",
"0. c #F28CA2",
"q. c #E99CA1",
"w. c #F595A5",
"e. c #F499A4",
"r. c #F594AB",
"t. c #F798AC",
"y. c #FA9EB3",
"u. c #F597B3",
"i. c #DCACBD",
"p. c #D1A5B6",
"a. c #D4B3BF",
"s. c #EAA1AA",
"d. c #E7A7B6",
"f. c #FAA1B5",
"g. c #FBA2BA",
"h. c #FEA8BF",
"j. c #F5ABB7",
"k. c #EAAFC4",
"l. c #FDA9C2",
"z. c #FDA6C0",
"x. c #E3BDCA",
"c. c #EEBCCC",
"v. c #E3B1C4",
"b. c #F5B2C4",
"n. c #F5BDC5",
"m. c #F8BDC6",
"M. c #F4BED1",
"N. c #D7C0C9",
"B. c #E3C4CF",
"V. c #F1C2C4",
"C. c #F4CACC",
"Z. c #FAC2CF",
"A. c #EEC9D1",
"S. c #EBC1D0",
"D. c #FFCFDC",
"F. c #FACAD6",
"G. c #E8D3DD",
"H. c #F7D1DB",
"J. c #EDDBE2",
"K. c #FED2E2",
"L. c #F6DEE3",
"P. c #FADAE3",
"I. c #FDDDE8",
"U. c #EBE0E7",
"Y. c #F0E1E1",
"T. c #FEE4ED",
"R. c #FDE8EF",
"E. c #FFE7F0",
"W. c #FEEDF3",
"Q. c #FDF2F6",
"!. c #FEF5F9",
"~. c #FFFDFE",
"^. c #F6F0F2",
"/. c None",
/* pixels */
"/./././././././././././././././././././././././././././././././././././././././.",
"/./././././././././././././././././././././././././././././././././././././././.",
"/./././././././././././././././././././././././././././././././././././././././.",
"/./././././././././././././././././././././././././././././././././././././././.",
"/./././././././././././././././././././././././././././././././././././././././.",
"/./././././././././././././././././././././././././././././././././././././././.",
"/./././././././././././././././././.        /./././././././././././././././././.",
"/././././././././././././.+ O # /.o 5 q q 5 o /.# O + /././././././././././././.",
"/./././././././././././.b H H # . 6 s R T s 3 . * H H b /./././././././././././.",
"/./././././././././., , *.T.G.= 2 a R ! R R s 3 - J.R.@.> /././././././././././.",
"/././././././././., i.L.^.~.U.= 0 g Y R +.Q j t 4 Y.~.T.8.$ /./././././././././.",
"/./././././././.H N.W.~.Q.E.A.4 r g d j E R j r 8 Y.~.~.a.$ /./././././././././.",
"/././././././.X J ~.~.Q.W.W.L.=.0 w y d g j h i 4 Y.!.W.i.v /./././././././././.",
"/././././././.O H W.!.R.W.~.Q.W.P Z p e r r i I D L.W.R.d.K /./././././././././.",
"/./././././././.G c.W.~.!.R.I.I.R.R.9.< 8 < 1 D P.I.!.~.B.M /./././././././././.",
"/././././././././.F J.!.R.T.~.~.~.~.Q.Y.G.A.c.H.~.~.~.~.B.M /./././././././././.",
"/././././././././., S.T.T.^.!.!.~.~.~.~.E.!.!.~.~.~.~.~.x.M /./././././././././.",
"/././././././././.n c.K.I.W.Q.Q.!.Q.W.!.W.~.~.~.~.W.!.~.B.M /./././././././././.",
"/././././././././.L Z.K.b.d.A.R.W.R.R.~.~.~.~.~.Q.T.W.~.B.M /./././././././././.",
"/././././././././.L k.K.1.I &.m.F.P.W.W.W.~.~.Q.R.~.~.~.B.M /./././././././././.",
"/./././././././././.L B.Z.r.f.,...s.I.W.W.Q.R.T.~.~.~.~.x.M /./././././././././.",
"/./././././././././.M x.D.z.l.<.3.7.>.6.H.T.T.W.Q.!.!.~.a.: /./././././././././.",
"/./././././././././.M v.s.| 3.r.l.w.&.>.e.5.V.W.!.!.!.!.p.$ /./././././././././.",
"/./././././././././.n d.5.( :.<.w.r.u.y.:.[ 5.m.C.V.V.m.-.% /./././././././././.",
"/./././././././././.% 8.b.g.t._ { 3.g.g.y.z.7.o.X.) / { ~ $ /./././././././././.",
"/././././././././././.> @.j._ 0.g.:.} %.r.h.g.r.t.f.t.0.' $ /./././././././././.",
"/./././././././././././.F B z _ ,.%.<.w.| o.e.h.r.l.z.<.S % /./././././././././.",
"/././././././././././././.+ % x V ~ %.7.:.2.<.$.$.4.%.$.^ $ /./././././././././.",
"/././././././././././././././.@ @ z Z ^ 7.y.:. .%.:.{ $.#.$ /./././././././././.",
"/./././././././././././././././././.% & U ` <.f.r.y.0.] m $ /./././././././././.",
"/./././././././././././././././././././.& & A ) / X.} m & /././././././././././.",
"/./././././././././././././././././././././.9 9 k z k 9 /./././././././././././.",
"/././././././././././././././././././././././.@ @ @ @ /././././././././././././.",
"/./././././././././././././././././././././././././././././././././././././././.",
"/./././././././././././././././././././././././././././././././././././././././.",
"/./././././././././././././././././././././././././././././././././././././././.",
"/./././././././././././././././././././././././././././././././././././././././.",
"/./././././././././././././././././././././././././././././././././././././././.",
"/./././././././././././././././././././././././././././././././././././././././.",
"/./././././././././././././././././././././././././././././././././././././././."
};
