/* XPM */
static char *exit1[] = {
/* columns rows colors chars-per-pixel */
"40 39 247 2 ",
"   c #010101",
".  c #040404",
"X  c #050505",
"o  c #060606",
"O  c #090909",
"+  c #0C0C0C",
"@  c #0D0D0D",
"#  c #0E0E0E",
"$  c #0F0F0F",
"%  c #101010",
"&  c #111111",
"*  c #121212",
"=  c #131313",
"-  c #151515",
";  c #161616",
":  c #181818",
">  c #191919",
",  c #1A1A1A",
"<  c #1B1B1B",
"1  c #1C1C1C",
"2  c #1D1D1D",
"3  c #1F1F1F",
"4  c #202020",
"5  c #212121",
"6  c #222222",
"7  c #232323",
"8  c #242424",
"9  c #252525",
"0  c #262626",
"q  c #272727",
"w  c #2A2A2A",
"e  c #2B2B2B",
"r  c #2C2C2C",
"t  c #2D2D2D",
"y  c #2E2E2E",
"u  c #2F2F2F",
"i  c #303030",
"p  c #313131",
"a  c #323232",
"s  c #333333",
"d  c #343434",
"f  c #353535",
"g  c #363636",
"h  c #373737",
"j  c #383838",
"k  c #393939",
"l  c #3A3A3A",
"z  c #3B3B3B",
"x  c #3C3C3C",
"c  c #3D3D3D",
"v  c #3E3E3E",
"b  c #3F3F3F",
"n  c #653838",
"m  c #404040",
"M  c #414141",
"N  c #424242",
"B  c #434343",
"V  c #444444",
"C  c #454545",
"Z  c #464646",
"A  c #474747",
"S  c #494949",
"D  c #4A4A4A",
"F  c #4B4B4B",
"G  c #4C4C4C",
"H  c #4D4D4D",
"J  c #4E4E4E",
"K  c #4F4F4F",
"L  c #5E4E4E",
"P  c #505050",
"I  c #515151",
"U  c #525252",
"Y  c #535353",
"T  c #545454",
"R  c #555555",
"E  c #565656",
"W  c #575757",
"Q  c #5F5757",
"!  c #585858",
"~  c #595959",
"^  c #5A5A5A",
"/  c #5B5B5B",
"(  c #5C5C5C",
")  c #5D5D5D",
"_  c #5E5D5D",
"`  c #5E5E5E",
"'  c #5F5F5F",
"]  c #614040",
"[  c #606060",
"{  c #616161",
"}  c #626262",
"|  c #636363",
" . c #646464",
".. c #656565",
"X. c #666464",
"o. c #666666",
"O. c #676767",
"+. c #686868",
"@. c #696969",
"#. c #6A6A6A",
"$. c gray42",
"%. c #6C6C6C",
"&. c #6D6D6D",
"*. c #6E6E6E",
"=. c #6F6F6F",
"-. c #707070",
";. c #717171",
":. c #727272",
">. c #747474",
",. c #757575",
"<. c #767676",
"1. c #777777",
"2. c #787878",
"3. c #797979",
"4. c #7B7B7B",
"5. c #7C7C7C",
"6. c #7E7E7E",
"7. c #7F7F7F",
"8. c #D03A3A",
"9. c #D25151",
"0. c #D66161",
"q. c #D76363",
"w. c #D36565",
"e. c #808080",
"r. c #818181",
"t. c #828181",
"y. c #828282",
"u. c #838383",
"i. c #848484",
"p. c #858585",
"a. c #868686",
"s. c #878787",
"d. c #868989",
"f. c #868B8B",
"g. c #858C8C",
"h. c #888888",
"j. c #888989",
"k. c #898989",
"l. c #8A8A8A",
"z. c #8B8B8B",
"x. c #8C8C8C",
"c. c #8D8D8D",
"v. c #8E8E8E",
"b. c #8F8F8F",
"n. c #909090",
"m. c #919191",
"M. c #929292",
"N. c #939393",
"B. c #949494",
"V. c #959595",
"C. c #969696",
"Z. c #979797",
"A. c #989898",
"S. c #999999",
"D. c #9A9A9A",
"F. c #9B9B9B",
"G. c #9C9C9C",
"H. c #9C9D9D",
"J. c #9D9D9D",
"K. c #9E9E9E",
"L. c #9F9F9F",
"P. c #A0A0A0",
"I. c #A1A1A1",
"U. c #A2A2A2",
"Y. c #A3A3A3",
"T. c #A4A4A4",
"R. c #A6A6A6",
"E. c #A7A7A7",
"W. c #A8A8A8",
"Q. c #A9A9A9",
"!. c #AAAAAA",
"~. c #ACACAC",
"^. c #ADADAD",
"/. c #AEAEAE",
"(. c #AFAFAF",
"). c #B0B0B0",
"_. c #B1B1B1",
"`. c #B2B2B2",
"'. c #B3B3B3",
"]. c #B4B4B4",
"[. c #B6B6B6",
"{. c #B7B7B7",
"}. c #B8B8B8",
"|. c #B9B9B9",
" X c #BABABA",
".X c #BBBBBB",
"XX c #BCBCBC",
"oX c #BDBDBD",
"OX c gray",
"+X c #BFBFBF",
"@X c #C08D8D",
"#X c #D58F8F",
"$X c #CF9A9A",
"%X c #D1B2B2",
"&X c #DFBEBE",
"*X c #E0ABAB",
"=X c #C0C0C0",
"-X c #C1C1C1",
";X c #C2C2C2",
":X c #C3C3C3",
">X c #C4C4C4",
",X c #C5C5C5",
"<X c #C6C6C6",
"1X c #C7C7C7",
"2X c #C8C7C7",
"3X c #C9C7C7",
"4X c #C8C8C8",
"5X c #C9C9C9",
"6X c #CACACA",
"7X c #CECECE",
"8X c #D3CDCD",
"9X c #D5CECE",
"0X c #D3D0D0",
"qX c #DEDEDE",
"wX c #E7C1C1",
"eX c #E4CECE",
"rX c #E0DFDF",
"tX c #E0E0E0",
"yX c #E3E3E3",
"uX c #E4E3E3",
"iX c #E5E5E5",
"pX c #E6E6E6",
"aX c #E7E7E7",
"sX c #E8E8E8",
"dX c #EAEAEA",
"fX c #EBEAEA",
"gX c #EEE8E8",
"hX c #ECEBEB",
"jX c #ECECEC",
"kX c #EDEDED",
"lX c #EEEEEE",
"zX c #EFEFEF",
"xX c #F0F0F0",
"cX c #F1F1F1",
"vX c #F7F0F0",
"bX c #F5F5F5",
"nX c #F6F6F6",
"mX c #F7F7F7",
"MX c #F8F3F3",
"NX c #F8F7F7",
"BX c #F9F8F8",
"VX c #F9F9F9",
"CX c #FBFBFB",
"ZX c #FCFBFB",
"AX c #FDFCFC",
"SX c #FEFEFE",
"DX c #FFFFFF",
/* pixels */
"O : h Y { } / I Z b x c b m m m v z h d a a a s d g g d s s s a p u u p e 3 @ . ",
"& r K _  .+.O.} ( ! E R E W ! ! W E Y I K J J P U T E R R E E T Y U U E I x 5 & ",
"4 M { +.,.p.z.c.x.x.c.x.l.h.h.k.h.s.p.e.5.4.5.6.u.s.h.k.k.k.k.a.u.e.2.-.+.R g 4 ",
"w Z  .4.D.]..XXXoXOXOXoX.X.XXXOXoX;X=X]./.).^.~._.|. X|.|. X}.[.'.).R.M.<.O.V 9 ",
"y A @.v.'.:X;X;X;X;X-X;X:X-X{.W.F.h.;.=.$.:.4.N.E. X:X:X;X;X;X;X;X;XOX`.h.$.Z 7 ",
"i A $.Z. X-X=X-X-X-X-X1X,XT.:.) ~  .<.G Y 2.%._ ~ 2.E.>X1X-X=X-X-X-X=X{.b.@.B 5 ",
"i S =.F.oX;X-X-X-X-X>XXXp.` F ~ {.tXxXm.B.jXpXoX^ A / u.oX,X-X-X-X-X-X[.x.O.M 3 ",
"d G =.F.oX-X-X-X=XoX~.o.) U.D.n.qXDXCXaXiXBXZX0Xt.H.D./ @.(.;X=X-X-X-X[.b.O.b 2 ",
"k K &.A.XX;X-X;XOXY./ c P.xXjXdXmXSXDXDXDXvX*X$X9XsXhXU.C / /.1X-X-X-X{.n.+.b < ",
"z U $.V..X;X-X-X^.! | y.<XCXDXDXDXSXSXSXNX&X9.#XgXAXNX6Xx.} ( Q.>X-X;X}.b.+.m : ",
"h I @.N. X;X=X X&.' 7XzXVXDXDXDXDXDXDXMXwXq.w.eXAXDXSXnXlX<Xo.>.|.;X-X}.m.&.M : ",
"a D O.M. X-X;XI.J !.bXnXcXzXkXkXfXfXrX%X0.8.@X8XuXyXyXaXfXsX~./ L.:X-X{.N.;.N : ",
"w C O.N. X-X;XU.' [ $. .#.=.*.&.%.&.o.L n ] Q X.=.-.-.:.;.1...( U.-X-X{.M.-.M : ",
"8 B $.C..X-X;XOXU.y.e.e.u.p.a.p.a.a.s.d.g.f.j.h.k.k.p.i.y.e.r.L.}.=X-X}.m.*.M : ",
"6 B %.Z..X;X-X:X>X5X6X6X5X5X5X5X5X5X4X4X3X2X4X4X4X1X,X:X:X-X:X=X+X-X;X Xn.%.N , ",
"5 M @.B. X;X-X-X=X=X=X=X=X=X=X=X=X=X=X=X=X=X=X=X=X=X=X-X-X-X-X-X-X-X;X.Xc.@.m , ",
"5 m ..m. X;X-X-X-X-X-X-X-X-X-X-X-X-X-X-X-X-X-X-X-X-X-X-X-X-X-X-X-X-X;X.Xl...b , ",
"4 m ..m.|.;X-X-X-X-X-X-X-X-X-X-X-X-X-X-X-X-X-X-X-X-X-X-X-X-X-X-X-X-X;X|.z...b , ",
"4 b o.M.XX;X-X-X-X-X-X-X-X-X-X-X-X-X-X-X-X-X-X-X-X-X-X-X-X-X-X-X-X-X;X Xn.+.b > ",
"5 b o.V.+X;X-X-X-X-X-X-X-X-X-X-X-X-X-X-X-X-X-X-X-X-X-X-X-X-X-X-X-X-X-XoXA.&.v > ",
"7 v ..C.OX-X-X-X-X-X-X-X-X-X-X-X-X-X-X-X-X-X-X-X-X-X-X-X-X-X-X-X-X-X-XOXJ.*.v : ",
"7 v ..B..X-X-X-X-X-X-X-X-X-X-X-X-X-X-X-X-X-X-X-X-X-X-X-X-X-X-X-X-X-X-X+XF.$.c - ",
"7 m ..B.oX-X-X-X-X-X-X-X-X-X-X-X-X-X-X-X-X-X-X-X-X-X-X-X-X-X-X-X-X-X;X+XZ.+.c * ",
"8 N O.Z.=X-X-X-X-X-X-X-X-X-X-X-X-X-X-X-X-X-X-X-X-X-X-X-X-X-X-X-X-X-X;X+XZ.+.x & ",
"q C @.A.=X-X-X-X-X-X-X-X-X-X-X-X-X-X-X-X-X-X-X-X-X-X-X-X-X-X-X-X-X-X-X;XF.@.x % ",
"w Z @.Z.=X-X-X-X-X-X-X-X-X-X-X-X-X-X-X-X-X-X-X-X-X-X-X-X-X-X-X-X-X-X-X>XK.@.x $ ",
"y Z O.Z.-X-X-X-X-X-X-X-X-X-X-X-X-X-X-X-X-X-X-X-X-X-X-X-X-X-X-X-X-X-X-X:XK.%.x % ",
"y B o.S.:X-X-X-X-X-X-X-X-X-X-X-X-X-X-X-X-X-X-X-X-X-X-X-X-X-X-X-X-X-X-X;XL.=.x = ",
"w m  .S.:X-X-X-X-X-X-X-X-X-X-X-X-X-X-X-X-X-X-X-X-X-X-X-X-X-X-X-X-X-X-X:XI.=.v ; ",
"0 v  .D.:X-X-X-X-X-X-X-X-X-X-X-X-X-X-X-X-X-X-X-X-X-X-X-X-X-X-X-X-X-X-X<XT.-.b : ",
"q v  .D.:X-X-X-X-X-X-X-X-X-X-X-X-X-X-X-X-X-X-X-X-X-X-X-X-X-X-X-X-X;X=X1XT.-.M , ",
"q c  .F.:X-X-X-X-X-X-X-X-X-X-X-X-X-X-X-X-X-X-X-X-X-X-X-X-X-X-X-X-X;X-X<XU.-.M , ",
"8 v o.F.;X-X-X-X-X-X-X-X-X-X-X-X-X-X-X-X-X-X-X-X-X-X-X-X-X-X-X-X;X;X-X1XU.=.M , ",
"7 N @.A.;X-X=X-X-X-X-X-X-X-X-X-X-X-X-X-X-X-X-X-X-X-X-X=X-X-X-X-X;X-X-X,XG.%.b , ",
"6 A =.v.+X>X;X;X;X;X;X;X;X;X;X;X;X;X;X;X;X;X;X;X;X;X;X:X:X:X:X>X:X:X,X Xc.o.x , ",
"4 B =.e.V.R.^.[.[.{.}.{.|.oXXX[.{.}.}.}.}.}.}.}.}.}.XX X}.|.|.|.|.].!.B.2./ g : ",
"> s ^ >.<.<.3.6.e.e.e.7.r.p.p.r.7.7.6.5.5.4.4.5.5.e.y.7.6.6.6.6.6.3.,.*.[ D t % ",
"# 1 f F Y U I Y T R R R R E W E R R R T U I P I U R W W E T T T T Y I H B a , X ",
"o + : 0 y i d h j k k k k k k j h g g j z z l l k j k l l j j l c x l g r 1 O   "
};
