/* XPM */
static char *rcp08453529351957[] = {
/* columns rows colors chars-per-pixel */
"40 40 139 2 ",
"   c black",
".  c #0C0B0D",
"X  c #100F11",
"o  c #131212",
"O  c #1B1816",
"+  c #1D1A19",
"@  c #221D1C",
"#  c #1E1F22",
"$  c #262220",
"%  c #2B2828",
"&  c #342925",
"*  c #372D29",
"=  c #392E2A",
"-  c #3E322E",
";  c #3F3430",
":  c #3C3939",
">  c #40342F",
",  c #423631",
"<  c #453933",
"1  c #493C36",
"2  c #453D3C",
"3  c #4C3E38",
"4  c #46403F",
"5  c #4C413B",
"6  c #51443D",
"7  c #474140",
"8  c #4B4443",
"9  c #4F4A4A",
"0  c #564641",
"q  c #574841",
"w  c #5C4C45",
"e  c #534D4D",
"r  c #5B4E4B",
"t  c #5E514D",
"y  c #574F50",
"u  c #575051",
"i  c #5A5152",
"p  c #63534A",
"a  c #68574E",
"s  c #69594F",
"d  c #635654",
"f  c #665954",
"g  c #6C5C51",
"h  c #645B5E",
"j  c #6C5E5B",
"k  c #715F53",
"l  c #6F625E",
"z  c #746155",
"x  c #74635A",
"c  c #7A665A",
"v  c #7E695E",
"b  c #665C60",
"n  c #695E62",
"m  c #6C6265",
"M  c #6E6468",
"N  c #736662",
"B  c #766964",
"V  c #796A65",
"C  c #72676B",
"Z  c #75696B",
"A  c #7A6E6D",
"S  c #7A6E70",
"D  c #7D7273",
"F  c #806B5F",
"G  c #826D62",
"H  c #867165",
"J  c #887165",
"K  c #887266",
"L  c #897266",
"P  c #897367",
"I  c #897366",
"U  c #8A7367",
"Y  c #8C7569",
"T  c #8D766A",
"R  c #8D776B",
"E  c #8E766A",
"W  c #8E776B",
"Q  c #8F776B",
"!  c #88746D",
"~  c #8F786C",
"^  c #90786C",
"/  c #91796D",
"(  c #927A6D",
")  c #917A6E",
"_  c #927A6E",
"`  c #937B6F",
"'  c #927B6E",
"]  c #8B7871",
"[  c #82767A",
"{  c #947C70",
"}  c #957D71",
"|  c #967E71",
" . c #957E72",
".. c #967E72",
"X. c #977F73",
"o. c #977F72",
"O. c #917C74",
"+. c #987F73",
"@. c #978072",
"#. c #988073",
"$. c #988074",
"%. c #998175",
"&. c #9B8275",
"*. c #9B8276",
"=. c #9B8376",
"-. c #9B8377",
";. c #9C8477",
":. c #9D8477",
">. c #9E8477",
",. c #9D8478",
"<. c #9E8578",
"1. c #9F8578",
"2. c #9F8678",
"3. c #9F8679",
"4. c #A08678",
"5. c #A08679",
"6. c #A08779",
"7. c #A1877A",
"8. c #A2877A",
"9. c #A28879",
"0. c #A1887A",
"q. c #A2887A",
"w. c #A4897A",
"e. c #A4897B",
"r. c #A48A7B",
"t. c #A48A7D",
"y. c #A68C7E",
"u. c #A68C7F",
"i. c #A68D7F",
"p. c #9A8E92",
"a. c #9C9195",
"s. c #A88E81",
"d. c #AA9081",
"f. c #AB9081",
"g. c #AC9182",
"h. c #AE9284",
"j. c #AE9384",
"k. c #A89FA2",
"l. c #BAB1B5",
/* pixels */
"B V B B V N l N N N B B B B B B B B V A : o o o o o o o o o o o o o o o o o o o ",
"c H v v G H P H G H Q Q P ` ` ` ` ` ` G %                                       ",
"G P c g z v v c z c G G v G G V v G ` G @                                       ",
"v G P P P o.` P G ` %.6.:.` %.~ G c Q G $                                       ",
"H v H ` ` 6.o.Q Q %.9.6.9.%.%.%.Q G ` G $                                       ",
"v G Q %.` %.,.o.` %.:.+.9.,.6.%.` P %.G $                                       ",
"c H o.:.Q o.,.%.%.:.%.%.6.,.9.6.#.Q :.G @                                       ",
"x G ` ` P o.6.,.6.e.6.e.e.,.9.6.%.{ o.G @                                       ",
"c v #.#.@.t.u.s.g.d.j.d.j.u.u.,.u.u.` G @                                       ",
"z c G Q o.` Q Q Q Q ~ ` ` o.o.o.o.o.` v @                                       ",
"m Z C Z Z C Z S S A Z Z Z A S S D D D N @                                       ",
"b n m m m m M m m M m m m M m M M C Z m @                                       ",
"h b n b n m n n m n b n m n m n m n M m @                                       ",
"h h h h b b n b h h h n n n n b b b m b +                                       ",
"d d f j j j j l l x N N N N N V V V V l O                                       ",
"g c v v H H G Q ` ` ` o.%.:.,.e.6.6.,.H @                                       ",
"g z c c v G v P ` ` ` ` %.o.%.:.O.V D D O                                       ",
"g k z z z c c G P Q Q ` o.o.o.o.] S D D #                                       ",
"s g g g g z z v H H P P Q ` Q ` ! [ a.D #                                       ",
"p a a g a g g v v F G G P P P G G m l.D #                                       ",
"w a p a p s g z v c F v G G G c f h k.D +                                       ",
"w p w a w s k z c c v v v v v x f i p.S +                                       ",
"6 w 0 p w a f z z c z x c c c x f 8 i M @                                       ",
"3 q 0 w w p s f z k s k z z c z x i n M @                                       ",
"5 5 0 q q p p a g g f g k k k z x m n h +                                       ",
"5 3 6 0 0 w p r a a a s s a a s f r t w +                                       ",
"< , 5 5 6 q w w p p w p p p w p p w r 6 O                                       ",
"e u u r r u i i u u i i i u u u i u i e X                                       ",
"e e u y u u i u u u u e u u e u u e e 8 X                                       ",
"9 e e e e u e 8 e e e e u e e e e e e 8 X                                       ",
"e e e e e e e e 9 e e e e e e e e 9 9 8 .                                       ",
"4 2 4 8 8 8 8 8 4 2 2 8 4 4 8 8 4 2 2 2 .                                       ",
"3 = < < , < < < < < < , < < , < < 3 3 < .                                       ",
", & > - * - - - , , , > - > = - - , 3 < .                                       ",
", - < , - , , ; , < 1 < , , - , , - < > .                                       ",
", , 3 , - < , , < < < 3 < < - < < , 3 - .                                       ",
"- , 3 < > , , < < < , < 3 < , < < - < - .                                       ",
"- - 1 , - , < < < < , , < < > , < - , - .                                       ",
"= - 5 5 3 5 5 6 3 3 3 5 5 6 6 6 6 3 = = .                                       ",
"* - , - , , < , < , = - < < , , - , & = .                                       "
};
