/* XPM */
static char *rcp08454018448772[] = {
/* columns rows colors chars-per-pixel */
"40 40 159 2 ",
"   c #2F2829",
".  c #352A26",
"X  c #352C29",
"o  c #392E2A",
"O  c #3E322E",
"+  c #3E3431",
"@  c #3F3A3D",
"#  c #40342F",
"$  c #423631",
"%  c #453933",
"&  c #493D36",
"*  c #453E3C",
"=  c #4C3F38",
"-  c #46403F",
";  c #4C413B",
":  c #52443D",
">  c #433F41",
",  c #474142",
"<  c #4B4342",
"1  c #4F4A4A",
"2  c #564641",
"3  c #574842",
"4  c #5C4C45",
"5  c #534D4D",
"6  c #5C4E4A",
"7  c #5E514D",
"8  c #574F50",
"9  c #575050",
"0  c #5A5152",
"q  c #605047",
"w  c #63534B",
"e  c #68574E",
"r  c #69594F",
"t  c #635653",
"y  c #665955",
"u  c #6D5C51",
"i  c #645B5E",
"p  c #6B5E5B",
"a  c #715F53",
"s  c #6E615D",
"d  c #746156",
"f  c #756359",
"g  c #7A665A",
"h  c #7E695E",
"j  c #665C60",
"k  c #695E62",
"l  c #6C6265",
"z  c #6E6468",
"x  c #746662",
"c  c #756964",
"v  c #7A6A64",
"b  c #72676A",
"n  c #756A6B",
"m  c #7A6E6E",
"M  c #746E73",
"N  c #7A6E70",
"B  c #777072",
"V  c #7D7273",
"C  c #7F7478",
"Z  c #806B5F",
"A  c #826D62",
"S  c #877165",
"D  c #897366",
"F  c #82716B",
"G  c #8D766A",
"H  c #8F786A",
"J  c #8F786C",
"K  c #90786C",
"L  c #91796D",
"P  c #90796D",
"I  c #927A6D",
"U  c #917A6E",
"Y  c #927A6E",
"T  c #937B6F",
"R  c #927B6F",
"E  c #927A6E",
"W  c #827671",
"Q  c #837772",
"!  c #847773",
"~  c #847575",
"^  c #847873",
"/  c #847874",
"(  c #8B7871",
")  c #82767A",
"_  c #877D7B",
"`  c #947C70",
"'  c #957D71",
"]  c #957C70",
"[  c #967E71",
"{  c #957E72",
"}  c #967E72",
"|  c #977F72",
" . c #977F73",
".. c #957D72",
"X. c #987F73",
"o. c #978072",
"O. c #988073",
"+. c #998173",
"@. c #988074",
"#. c #998175",
"$. c #9A8175",
"%. c #9A8174",
"&. c #9B8275",
"*. c #9B8276",
"=. c #9B8376",
"-. c #9C8376",
";. c #9D8377",
":. c #9D8477",
">. c #9C8477",
",. c #9E8477",
"<. c #9B8376",
"1. c #9D8478",
"2. c #9E8578",
"3. c #9F8578",
"4. c #9F8678",
"5. c #9F8679",
"6. c #9E8678",
"7. c #9F8679",
"8. c #A08679",
"9. c #A08779",
"0. c #A18779",
"q. c #A08678",
"w. c #A1877A",
"e. c #A2877A",
"r. c #A08779",
"t. c #A28879",
"y. c #A1897A",
"u. c #A2887A",
"i. c #A3887A",
"p. c #A4897B",
"a. c #A4897A",
"s. c #A48A7B",
"d. c #A38B7D",
"f. c #A48A7D",
"g. c #A68D7F",
"h. c #A68C7F",
"j. c #A4897B",
"k. c #877C80",
"l. c #968B8F",
"z. c #9A8E92",
"x. c #9C9195",
"c. c #A88E81",
"v. c #AB9081",
"b. c #A99082",
"n. c #AC9182",
"m. c #AB9184",
"M. c #AB9284",
"N. c #AD9385",
"B. c #AE9384",
"V. c #AF9586",
"C. c #B19687",
"Z. c #B29787",
"A. c #B19588",
"S. c #B29788",
"D. c #B5988A",
"F. c #A2989B",
"G. c #A89FA2",
"H. c #AFA6A9",
"J. c #BAB1B5",
/* pixels */
"c v c c v x s x x x c c c c c c c c v m _ / Q Q ! ! ^ Q ! Q Q Q Q n c n n c c c ",
"g S h h A S D S A S H H D T T T T T T A F T H T T J H D D H S h S D A A Z h S f ",
"A D g u d h h g f g A A h A A v h A T A h T A h A h h f h f f d f g g a u g D h ",
"h A D D D | T D A T #.9.:.T #.J A g H A v K g h D #.T ;.t.;.| A D T | S D D A g ",
"S h S T T 9.| H H #.t.9.t.#.#.#.H A T A v | A D #.#.#.9.9.9.;.D H | 9.H T D A A ",
"h A H #.T #.1.| T #.:.X.t.1.9.#.T D #.A v #.A T X.9.9.t.+.1.#.T | :.#.T | H S g ",
"g S | :.H | 1.#.#.:.#.#.9.1.t.9.+.H ;.A v ;.S | 9.9.1.9.#.:.;.#.#.1.| H ;.o.D a ",
"f A T T D | 9.1.9.p.9.p.p.1.t.9.#.` | A v | H +.9.9.:.t.p.1.9.t.1.1.| D | | S a ",
"g h +.+.o.f.h.c.n.v.B.v.B.h.h.1.h.h.T A v T 9.v.d.M.B.D.C.S.C.C.S.V.M.:.1.t.A f ",
"f g A H | T H H H H J T T | | | | | T h g J #.| | | | T T T H H J H T | D A g f ",
"l n b n n b n N N m n n n m N N V V V b l V N m V N m n b m m m m n b n n n b z ",
"j k l l l l z l l z l l l z l z z b n l p n b b z l l l l l z l l z l l l l k i ",
"i j k j k l k k l k j k l k l k l k z l l z k l k l l l k j k l k k l k j j i i ",
"i i i i j j k j i i i k k k k j j j l j i l j i k k k k k j i i j k k j i i i i ",
"t t y p p p p s s f x x x x x v v v v s y v v v v x c c x x x s s s p p p y t t ",
"u g h h S S A H T T T | #.:.1.p.9.9.1.S g 1.t.9.p.9.:.:.| T T T H A S S h h f u ",
"u d g g h A h D T T T T #.| #.:...v V V x ~ v F ;.;.| #.T T T T D h A h g f d u ",
"u a d f f g g A D H H T | | | | ( N C C M C m F | | | | T H T H A g g f f d a y ",
"r u u u u f f h S S D D H T H T F ) x.C M l._ F T H T H D S D S h f f a u u u r ",
"q w w u e u u h h Z A A D D D A A l J.C M H.B x A S D D A A A h h u u e u r w q ",
"4 w q w q r u f h g Z h A A A g y i G.V z F.l t g A A A h h g h g u u q w q q q ",
"4 q 4 w 4 r a f g g h h h h h f t 0 z.N z l.i w f h h h h h g g f a u 4 w 4 q 4 ",
": 4 2 q 4 w y d f g d f g g g f y < 0 z z i < w f g g g f a f d d u w 4 6 3 4 3 ",
"= 3 2 4 4 q r y d a r a f f g d f 0 k z l z t p d f f f d r u f y y q 4 4 3 : ; ",
"; : 2 3 3 q w w u u y y a a a f f l k i y l l p f d u u r y u y w q q 3 3 3 : : ",
"; = : 2 2 4 q q w w w r r e e r y 6 7 4 6 7 6 t r r w r r w w w q q 4 2 2 : & ; ",
"% $ ; ; : 3 4 4 q q 4 w q q 4 q q 4 6 : 2 6 4 q q 4 4 q w 4 q q 4 3 2 : ; = $ % ",
"5 0 0 5 5 0 0 0 0 0 0 0 0 0 0 0 0 0 0 5 , 0 0 0 0 0 0 0 0 0 0 0 0 0 0 0 0 0 0 0 ",
"5 5 0 8 0 0 0 0 0 0 0 5 0 0 5 0 0 5 5 < > 5 5 9 0 5 0 9 5 0 5 0 8 0 0 9 5 0 5 5 ",
"1 5 5 5 5 0 5 < 5 5 5 5 0 5 5 5 5 5 5 < > 5 1 5 5 5 5 0 5 5 5 5 < 5 9 5 5 5 5 5 ",
"5 5 5 5 5 5 5 5 1 5 5 5 5 5 5 5 5 1 1 < @ 5 5 5 5 5 5 5 5 5 5 5 5 5 5 5 5 1 1 5 ",
"; * - < < < < < - * * < ; ; < < ; * * * + * ; ; < < < ; < ; ; * * * * * % % + % ",
"& o % % $ % % % % % % $ % % $ % % & & % + = & & % % % % $ $ $ % $ $ $ O O O X % ",
"$ . # O X O O O $ $ $ # O # o O O $ & % + & O O $ o # $ $ $ % $ O O O X O % o % ",
"$ O % $ O $ $ + $ % & % $ $ O $ $ O % # O % O $ % O $ $ % & % $ + $ $ O $ & + $ ",
"$ $ = $ O % $ $ % % % & % % O % % $ & O o % O % % O % % & % & % % % % O % ; % $ ",
"O $ & % # $ $ % % % $ % & % $ % % O % O X % O $ % $ % & % $ % % % % $ O % ; % o ",
"O O & $ O $ % % % % $ $ % % # $ % O $ O X O O % % O % % $ $ $ $ % % % O $ & $ o ",
"o O ; ; = ; ; : = & = ; ; : : : : & o o X o % & = & = & & ; ; ; : : : = ; = O . ",
"X O $ O $ $ % $ % $ o O % % $ $ O $ . o   . O O $ $ $ % + o $ % $ % $ $ O $ O . "
};
