/* XPM */
static char *rcp08453105936959[] = {
/* columns rows colors chars-per-pixel */
"40 40 164 2 ",
"   c gray5",
".  c #121212",
"X  c #191916",
"o  c #171818",
"O  c #1B1C1E",
"+  c #25221E",
"@  c #2A271F",
"#  c #1B1E21",
"$  c #1F2121",
"%  c #232525",
"&  c #292925",
"*  c #212428",
"=  c #272C2F",
"-  c #2B2C2C",
";  c #322C24",
":  c #32322C",
">  c #3B362E",
",  c #292D31",
"<  c #2F3234",
"1  c #2E343B",
"2  c #343433",
"3  c #3E3B36",
"4  c #34393C",
"5  c #3C3B3B",
"6  c #44453F",
"7  c #373A42",
"8  c #3A3D41",
"9  c #423F40",
"0  c #3D4144",
"q  c #3D434B",
"w  c #444443",
"e  c #484747",
"r  c #42474C",
"t  c #424A4F",
"y  c #4C4C4B",
"u  c #51514F",
"i  c #424652",
"p  c #444D54",
"a  c #495157",
"s  c #4A535B",
"d  c #565656",
"f  c #595553",
"g  c #53575B",
"h  c #595A5A",
"j  c #585A5A",
"k  c #605C56",
"l  c #615D58",
"z  c #65615B",
"x  c #4B5261",
"c  c #4F5A62",
"v  c #525B63",
"b  c #586067",
"n  c #55616A",
"m  c #5B646B",
"M  c #586774",
"N  c #5C6973",
"B  c #5F6C7C",
"V  c #636363",
"C  c #686867",
"Z  c #63676C",
"A  c #6C6C6C",
"S  c #71706F",
"D  c #636E74",
"F  c #6C6D70",
"G  c #636F78",
"H  c #706F70",
"J  c #6D7072",
"K  c #65737C",
"L  c #6B767C",
"P  c #737373",
"I  c #787877",
"U  c #777779",
"Y  c #7C7B7C",
"T  c #83817F",
"R  c #637083",
"E  c #6E7D86",
"W  c #6D7E88",
"Q  c #777C80",
"!  c #75858F",
"~  c #79858D",
"^  c #738490",
"/  c #7B8993",
"(  c #788B9C",
")  c #7E919E",
"_  c #7C8FA0",
"`  c #7F93A0",
"'  c #838383",
"]  c #898683",
"[  c #888788",
"{  c #8B8A8B",
"}  c #8F908F",
"|  c #8F8F90",
" . c #82909F",
".. c #8D969D",
"X. c #949494",
"o. c #91989D",
"O. c #9A9A9A",
"+. c #8192A0",
"@. c #8499A5",
"#. c #859AA8",
"$. c #8B9AA2",
"%. c #889EB0",
"&. c #8BA1AD",
"*. c #9BA0A4",
"=. c #94A1A8",
"-. c #9EA8AD",
";. c #8DA5B3",
":. c #9BA7B0",
">. c #92A9B6",
",. c #94ADBB",
"<. c #96B0BE",
"1. c #99B0BE",
"2. c #A3A3A3",
"3. c #A1A9AF",
"4. c #ABABAC",
"5. c #A2AEB4",
"6. c #AFB2B0",
"7. c #B4B4B4",
"8. c #B6B7BA",
"9. c #B9B7B8",
"0. c #BBBABB",
"q. c #96B2C1",
"w. c #9BB3C3",
"e. c #9EBBCC",
"r. c #A8BCC6",
"t. c #A1BBCA",
"y. c #A9BFCC",
"u. c #BDC2C3",
"i. c #B9C6CD",
"p. c #BCC8CE",
"a. c #C2C1C1",
"s. c #C5C6C8",
"d. c #CCCCCC",
"f. c #C4CDD2",
"g. c #C0D1D8",
"h. c #CCD8DD",
"j. c #C9D5DC",
"k. c #D4D4D4",
"l. c #D8D8D7",
"z. c #D8D7D8",
"x. c #DCDCDC",
"c. c #E0E0DF",
"v. c #DADEE2",
"b. c #DDE1E3",
"n. c #E1E1E1",
"m. c #E2E2E2",
"M. c gray90",
"N. c #E4E4E5",
"B. c #E5E5E6",
"V. c #E6E6E6",
"C. c #E4E4E4",
"Z. c #E8E7E8",
"A. c #E6E8E9",
"S. c #EAEAEA",
"D. c #ECECEC",
"F. c gray95",
"G. c #F6F6F6",
"H. c #F3F3F3",
"J. c #F9F9F9",
"K. c #FBFBFB",
"L. c #FDFDFD",
"P. c white",
"I. c #FEFEFE",
"U. c #FFFFFF",
/* pixels */
"P.P.P.P.P.P.P.P.P.P.P.P.P.P.P.P.P.P.P.P.P.P.P.P.P.P.P.P.P.P.P.P.P.P.P.P.P.P.P.P.",
"P.P.P.P.P.P.P.P.P.P.P.P.P.P.P.P.P.P.P.P.P.P.P.P.P.P.P.P.P.P.P.P.P.P.P.P.P.P.P.P.",
"P.P.P.P.P.P.P.P.P.P.P.P.P.m.O.P V V V A { a.J.P.P.P.P.P.P.P.P.P.P.P.P.P.P.P.P.P.",
"P.P.P.P.P.P.P.P.P.P.P.P.O.e O.l.S.Z.S.m.7.A w 0.P.P.P.P.P.P.P.P.P.P.P.P.P.P.P.P.",
"P.P.P.P.P.P.P.P.P.P.J.U ' V.V.V.V.V.V.V.V.V.c.A s.P.P.P.P.P.P.P.P.P.P.P.P.P.P.P.",
"P.P.P.P.P.P.P.P.P.P.2.D v.V.V.V.V.V.V.V.V.V.V.x.9 G.P.P.P.P.P.P.P.P.P.P.P.P.P.P.",
"P.P.P.P.P.P.P.P.P.C.r ,.A.V.V.V.V.V.V.V.V.V.V.V.{ 2.P.P.P.P.P.P.P.P.P.P.P.P.P.P.",
"P.P.P.P.P.P.P.P.P.2.! ,.A.V.V.V.m.l.V.V.V.V.V.V.V.V P.P.P.P.P.P.P.P.P.P.P.P.P.P.",
"P.P.P.P.P.P.P.P.P.P ,.,.x.V.V.4.& % A x.V.V.k.y u A m.P.P.P.P.P.P.P.P.P.P.P.P.P.",
"P.P.P.P.P.P.P.P.P.V w.>.d.V.V.y 2 : & 9.V.V.' & & e 7.P.P.P.P.P.P.P.P.P.P.P.P.P.",
"P.P.P.P.P.P.P.P.P.g e.;.d.V.m.y d 6 & 4.V.V.C w : j I P.P.P.P.P.P.P.P.P.P.P.P.P.",
"P.P.P.P.P.P.P.P.P.a e.@.m.V.V.A d d - d.V.V.O.e - } d P.P.P.P.P.P.P.P.P.P.P.P.P.",
"P.P.P.P.P.P.P.P.m.n e.@.V.V.V.l.P V 7.V.V.V.x.I Y l.y G.P.P.P.P.P.P.P.P.P.P.P.P.",
"P.P.P.P.P.P.P.P.2./ e.=.V.V.V.V.V.V.V.V.V.V.V.V.V.x.e D.P.P.P.P.P.P.P.P.P.P.P.P.",
"P.P.P.P.P.P.P.P.d 1.e.3.V.V.7.A X.O.A A A A V V X.' y D.P.P.P.P.P.P.P.P.P.P.P.P.",
"P.P.P.P.P.P.P.k.q e.q.u.V.V.7.e 5 e d d d u : & X V y F.P.P.P.P.P.P.P.P.P.P.P.P.",
"P.P.P.P.P.P.J.A ;.e.>.k.V.V.l.y y w d d d e : : X { d J.P.P.P.P.P.P.P.P.P.P.P.P.",
"P.P.P.P.P.P.O.K e.e.5.C.V.V.V.2.5 d d d d 5 : - y 9.I P.P.P.P.P.P.P.P.P.P.P.P.P.",
"P.P.P.P.P.7.s <.,.w.p.v.V.V.V.m.O.w e d y : & 5 s.X.9.P.P.P.P.P.P.P.P.P.P.P.P.P.",
"P.P.P.S.' 4 N 4 N e.t.j.v.V.V.V.V.x.4.' I Y 4.c.V.A F.P.P.P.P.P.P.P.P.P.P.P.P.P.",
"P.P.P.a.V H [ 5 >.) W t.b.V.V.V.V.V.V.V.x.m.V.V.4.' P.P.P.P.P.P.P.P.P.P.P.P.P.P.",
"P.P.P.P.P.s.5 < v = #.g.V.9.O.m.V.x.x.l...u.V.f.0 S.P.P.P.P.P.P.P.P.P.P.P.P.P.P.",
"P.P.P.P.G.X.{ 0.0.c y.u.-.~ o.p.V.5.p.:.t.u.h.D 7.k.V.P.P.P.P.P.P.P.P.P.P.P.P.P.",
"P.P.P.P.P.P.P.l.0 w.w.,.` t ) / J &.+.m t.r.K ' ' 2.A P 7.P.P.F.0.P V P y P.P.P.",
"P.P.P.P.P.P.S.h #.;.^ b V 8 E L 4.F % c e.E F 9.F Z = J d 2.] z & # . ; f P.P.P.",
"P.P.P.P.P.m.5 < g U 4.C.F.s p u.V.C.2.E p | x.' $.G b J + > k j   # O o S.P.P.P.",
"P.P.P.P.P.P.P.P.P.P.P.P.X.n 1 p.V.V.{ . : : ; @ 8.I 7.6.S P.P.m.O 7 p 1 d.P.P.P.",
"P.P.P.P.P.P.P.P.P.P.P.G.P I - &.b.V.2.3 l T 4.k.{ A { ' a.P.P.P.O 7 N v a.P.P.P.",
"P.P.P.P.P.P.P.P.P.P.P.P.P.x.3 m 5.f.5.X.P.P.P.P.P.P.P.P.P.P.P.P.% x _ L a.P.P.P.",
"P.P.P.P.P.P.P.P.P.P.P.P.P.P.D.S.s.*.Q d.P.P.P.P.P.P.P.P.P.P.P.P.= B ( v z.P.P.P.",
"P.P.P.P.P.P.P.P.P.P.P.P.P.P.P.P.P.P.P.P.P.P.P.P.P.P.P.P.P.P.P.F.* x R q J.P.P.P.",
"P.P.P.P.P.P.P.P.P.P.P.P.P.P.P.P.P.P.P.P.P.P.P.P.P.P.P.P.P.P.P.4.= M  .A P.P.P.P.",
"P.P.P.P.P.P.P.P.P.P.P.P.P.P.P.P.P.P.P.P.P.P.P.P.P.P.P.P.P.P.P.g s %.m 7.P.P.P.P.",
"P.P.P.P.P.P.P.P.P.P.P.P.P.P.P.P.P.P.P.P.P.P.P.P.P.P.P.P.P.P.7.7 B n F G.P.P.P.P.",
"P.P.P.P.P.P.P.P.P.P.P.P.P.P.P.P.P.P.P.P.P.P.P.P.P.P.P.P.P.d.$ q i V J.P.P.P.P.P.",
"P.P.P.P.P.P.P.P.P.P.P.P.P.P.P.P.P.P.P.P.P.P.P.P.P.P.P.P.s.2 , 8 Y G.P.P.P.P.P.P.",
"P.P.P.P.P.P.P.P.P.P.P.P.P.P.P.P.P.P.P.P.P.P.P.P.P.P.J.X.. - Y k.P.P.P.P.P.P.P.P.",
"P.P.P.P.P.P.P.P.P.P.P.P.P.P.P.P.P.P.P.P.P.P.P.P.P.J.9.{ 4.x.P.P.P.P.P.P.P.P.P.P.",
"P.P.P.P.P.P.P.P.P.P.P.P.P.P.P.P.P.P.P.P.P.P.P.P.P.P.P.P.P.P.P.P.P.P.P.P.P.P.P.P.",
"P.P.P.P.P.P.P.P.P.P.P.P.P.P.P.P.P.P.P.P.P.P.P.P.P.P.P.P.P.P.P.P.P.P.P.P.P.P.P.P."
};
