/* XPM */
static char *rcp08452663789296[] = {
/* columns rows colors chars-per-pixel */
"40 40 200 2 ",
"   c #505E30",
".  c #556A2D",
"X  c #5C6433",
"o  c #5D6B36",
"O  c #5F6439",
"+  c #62742D",
"@  c #647B2F",
"#  c #606437",
"$  c #656C34",
"%  c #6B6D37",
"&  c #6A633B",
"*  c #646C3A",
"=  c #6B6C3A",
"-  c #716D3D",
";  c #657233",
":  c #6B7434",
">  c #6C7935",
",  c #64743B",
"<  c #6D733C",
"1  c #6B7B3D",
"2  c #73753D",
"3  c #78773F",
"4  c #757B3C",
"5  c #7B7C3D",
"6  c #686742",
"7  c #666C41",
"8  c #6C6D41",
"9  c #6E6248",
"0  c #746F43",
"q  c #776E4B",
"w  c #7A6946",
"e  c #657240",
"r  c #6D7342",
"t  c #667A44",
"y  c #6D7A43",
"u  c #64764B",
"i  c #747544",
"p  c #7B7445",
"a  c #757B44",
"s  c #7B7B44",
"d  c #75744B",
"f  c #7B744B",
"g  c #757D4B",
"h  c #7C7C4C",
"j  c #7D6E51",
"k  c #7A7452",
"l  c #7B7A51",
"z  c #836D4E",
"x  c #817D44",
"c  c #83764A",
"v  c #89764F",
"b  c #837C4C",
"n  c #8A7D4D",
"m  c #836E54",
"M  c #847354",
"N  c #8C7654",
"B  c #837C53",
"V  c #8B7C54",
"C  c #867658",
"Z  c #8C755A",
"A  c #867D59",
"S  c #8C7B5A",
"D  c #957E56",
"F  c #93755A",
"G  c #927C5D",
"H  c #987D5F",
"J  c #8D7C62",
"K  c #957764",
"L  c #947D62",
"P  c #9B7D63",
"I  c #957E6A",
"U  c #6C8032",
"Y  c #768337",
"T  c #76823A",
"R  c #7B863F",
"E  c #758F39",
"W  c #6D8548",
"Q  c #758346",
"!  c #7B8244",
"~  c #7B8A45",
"^  c #74834C",
"/  c #7C844B",
"(  c #78884C",
")  c #7D904A",
"_  c #768253",
"`  c #7D8353",
"'  c #838445",
"]  c #8A8447",
"[  c #838F46",
"{  c #84834C",
"}  c #8B844D",
"|  c #848A4B",
" . c #8B8B4C",
".. c #92844E",
"X. c #928A4E",
"o. c #8C924D",
"O. c #93914D",
"+. c #848453",
"@. c #8C8353",
"#. c #838953",
"$. c #8B8A53",
"%. c #84845B",
"&. c #8D855B",
"*. c #858B5B",
"=. c #8D8A5A",
"-. c #928455",
";. c #998652",
":. c #938A55",
">. c #998C55",
",. c #93845B",
"<. c #9A845D",
"1. c #948B5B",
"2. c #9A8C5C",
"3. c #8F925B",
"4. c #8D9B59",
"5. c #929154",
"6. c #9B9256",
"7. c #999A55",
"8. c #95905D",
"9. c #9B935D",
"0. c #9E9D5E",
"q. c #A28E5C",
"w. c #A2925D",
"e. c #A8965F",
"r. c #A19B5A",
"t. c #8C8B62",
"y. c #948462",
"u. c #9A8463",
"i. c #958C62",
"p. c #9C8B63",
"a. c #9C8369",
"s. c #9D8B6A",
"d. c #938B69",
"f. c #8A9161",
"g. c #959263",
"h. c #9C9463",
"j. c #9E9C64",
"k. c #96926A",
"l. c #9D926B",
"z. c #9D8E74",
"x. c #9E9272",
"c. c #A18467",
"v. c #A28C64",
"b. c #A1866A",
"n. c #A98468",
"m. c #A38C6B",
"M. c #A98D6D",
"N. c #A39364",
"B. c #AC9266",
"V. c #A59B65",
"C. c #AB9B65",
"Z. c #A4926B",
"A. c #AB946C",
"S. c #A59A6B",
"D. c #AC9A6C",
"F. c #B39867",
"G. c #B2946D",
"H. c #B29B6D",
"J. c #BA956D",
"K. c #A48C72",
"L. c #A98E72",
"P. c #A88E78",
"I. c #A69372",
"U. c #AC9473",
"Y. c #A59A72",
"T. c #AC9B74",
"R. c #AC9479",
"E. c #A49B78",
"W. c #AB9B79",
"Q. c #B29574",
"!. c #B19976",
"~. c #B29B74",
"^. c #BA9E75",
"/. c #B1967B",
"(. c #B39B7A",
"). c #BB9D7C",
"_. c #A6A26A",
"`. c #A9A262",
"'. c #B2A26E",
"]. c #ABA077",
"[. c #B5A175",
"{. c #BBA376",
"}. c #B5A27B",
"|. c #BBA27C",
" X c #C1A27B",
".X c #C0A978",
"XX c #B79C83",
"oX c #BD9E81",
"OX c #BCA382",
"+X c #BDA882",
"@X c #BFA588",
"#X c #C1AA83",
"$X c #C1A68C",
"%X c #C9AC8E",
"&X c #C3A684",
"*X c #CCB081",
"=X c #DBB986",
"-X c #D7B687",
";X c #C7B090",
":X c #E5C491",
/* pixels */
"p.m.p.2.{ p.p.A.(.%.d i s ' < B 8.o.@ > U : 6. .+.$.*.s.a.<.v.H U.u.s H.=XN.T.m.",
"~.2.D.^.U.v.M.v.i.k._ *.D.{ % Z.g.| | T 4 4.b @.2 * o C L.&.N <.L.Z.A.S.|.A.l.Y.",
"A.-.v.!.A.(.U.y.&.i.t.W.A.Z.| B M.g ( a ' $.R s < p Q y.R.Z.N.,.m.U.@.}.!.~.D.w.",
"2.1.=.p.Z.v.2.h.$.D.W.S.1.m.b r 8 +.$.h.b b s x s @.a { y.m.m.Z.Z.Z.$.V.m.`.V.r.",
"C.9.1.1.2.D.X.O.' w.S.9.} @.p.~.v.>.$.A.g.s.} 2.w.p.@.@.p.C @.1.=.:.N.X.6.{.D.V.",
"w.e.).| R V.B } 4 V.V.$.! } >.b p }.m.L L./.h.D.D.G.$.:.v.K m.D.$.Z.!.7.D.C.:.L.",
"X.;.c.$.[ @.=.+ ' 2.1.9.{ ! ' 3 ~ T.I.l.S /.i.R.|.2.v.).v.z ,.!.2.T.T.'.9.V.9.x ",
"n ] p.9.D.@.p 5 ' D.v.-.i = X i c B %.h i.R.&.R.I K.p.Z.:.> h.H.^.).U.+X$X[.S...",
"2.;.q.q.:.b @.:.:.!.G.@.i * * p s g { =.p.y.z.b.P.s.=.@.N.7._.A.D.U.oXA.~.!.~.>.",
"F.A.A.|.Q.N.,.,.A.~.!.h.&.r y & r %.A ,.y.,.U.R.R.s.a B m. XA.&.Z.c.(.i.#XZ.,.j.",
"9.v.A.|.OXM.m.L.!.m.T.k._ r i a +.(.i.l V u.XXm.U.V.3.V :.v.1.&X).a.P m.D.u.+.=.",
"*.g.1.~.M.A.).Q.L.,.&.l.t.t ^ 9.:.s.i.#.r Z.!.U.b 9.1.%.+.1 2 v.<.b d }.^.}.*.%.",
"g.*.` s.1.|.v.U.L.d h.p.i.f.].[.V.h l ` g &.:.s s @.b i.#.^ #.{ Q = N.|.U.(.h.g.",
"i.i.u t.E.m.v.I.I.t.Z.Z.W.g.+XN.~.f B l 7 g p.! >.:.2.:.,.s | h $.h l.m.c.M.OXL.",
"U.T.A.E.x.Z.<.Z.|.OXU.I.W.T.U.Z.I.u.&.l.#.Y.[.1.! ,.V S f < 0.( 6.i.a.G n././.L.",
"R.y.G m.R.N p N.=X:X9.Y.S.U.i.p.v.&.&.m.x.T.Z.#.{ = p { y f { N.] <.y.V M.XX/.U.",
"<.M.u.u.(.A.1.p.2.*X^.y.W.Z.}.A.@.W.I.A.W.U.m.2.! ; > ~ > ; [ r.o.1.8 j.` x.u.s.",
"&.f u.u.R.Z.A.|.}.+XA.D.R.~.T.V p. X-X9.Y.Z.y.h.| ~ + > T E | N.6.| ! # * S u.L.",
"p.@.B u.M.T.<.p.(.!.~.|.#XD.S.-.n v..X~.Z.U.1.g.=.) / T T a 4.4 x h < < . g s./.",
"Z.G N c.A.m.8.h U.v.A.N.+X~.Z.h.<.~.|.!.|.|.T.m.u.g Q = ! !  .Y x = $ b / V L.U.",
"1.m.b N D ,.N.1.B.v.A.g.~.A.{.| N b T.A.p.T.d u.&.+.^ | :.V 0 h } 4 2 * h ,.B c.",
"a.a.<.<.u.v.c b c ,.f b p l S.1.,.$.N.<.u.@.a   < :.2.N.=.h =.' Y : < < B m.M.G ",
"H V S V y.u.V b p <.f g 2.` g 2.2.6.O.,.+.:.| , w.6.$.N.U.R.Z.2.5.:.; h +.A M b ",
"Z V =./ b <.V h a v b B V.T.i.<.'.A.V.w.9.h.+.i.(.|.U.S m./.U.h.:.$.s 1.Y.E.i.C ",
"&.B A.B V D h O h b b * V A.u.<.D.w.Q.H...~.p.OX%X$XR.&.Z.L OXD.h.] $.2.m.m.A @.",
"T.W.U.*.r p i y { @.b ` g ,.s.~.D.>.-.>.2.L.R.s.a.;XE.&.&.f (.1.8.2.p R.A.y.+.,.",
",./.c.S./ 2.h h n ,.w c $.N.A.m.2.9.{ } X.,.a.s.f k l h #.p.L.h.2.2.v.c.P a.B b ",
"~.R.Z u.h &.` d & 8 < { 5.v.A.,.T.[.w.;...,.C i.g ^ / #.&.Z.V I.i.a.N M F u.-.:.",
"m.J p.,.y.S ` h.#.#., =.V <.<.,.Q.!.9.6.B.B.+.i r ^ B M i.B =.L y.M f B C u.y.M.",
"M l A.M.F J.i.d M Z.+.e -.B.A.m.Z.3 @.$.,.U.9 / C k.g.+.q G m.Q.Y.=.d &.*.S H /.",
"%.B u.c.L v.I.k.1.Z.l.A m.Q.R.H.Z.D.2.' 1.1.h &.M.@X!.h.#.g f OXY.r d u.a.&.Z.c.",
"d k j S ,.A.m.(.T.M.I.K.M.M.G m.U.A.D.:.N.<.T.m.S s.I.*.( o -.@XW.*.+.b d %.L m ",
"%.+.f q m S Z ,.i.R.J a.G c.S m.s.R.m.u.M.N M.v.,.&.V.p.+.W :.).s.l 1.b 7 l l 6 ",
"! b ! h 7 f V &.1.i.i.L @.y.m.m.K.K.Z.&.,.o.h.[.!.Q.|.+Xh.{ ] p.h.:.b > f 1.@.s ",
"* = c :.:.h.:.<.- ! $.{ ' y.m.P R.R.y.a i.|.N.p.M.oXZ.Q.T.>.q.2.2.} @.x :.A.<.i ",
"o p +.a @.-.S &.a @.9.v.-.U.H ,.Q.2.h.p.} 2.A.oXb.a.U.m.+.N.v.~.^.U.,.2.Z.Q.2.h ",
"* = { #.' | X.$.{ ' 2.b ' a.i 9.{ s -.B +., n ,.i ,.|.T.*.+.i.v.).A.Q.U.A.m.k.l ",
"t 6.9.9.} { ' V.5.' | 4 } h 1 8 a :.1.8.1.| $.Q B ~.A.(.N.g.*.+.Z.~.L.A.s.@.k.%.",
"Y.[.$. .p.; } p.2.i = = n a : o a { V S f ' #.} &.u.P R./.M.l._ d.I.v.U.i.l.p.i.",
"}.Z.A.2.p x } G.N.f o r 2 f < V 1.< $ ! < b h.:.U.S Q.XXL.R.s.U.W.m.u.A.OXA.W.Z."
};
