/* XPM */
static char *onigiri[] = {
/* columns rows colors chars-per-pixel */
"40 30 67 1 ",
"  c #000000",
". c #070808",
"X c #0C0C0C",
"o c #0F1010",
"O c #141414",
"+ c #1C1C1C",
"@ c #242424",
"# c #292929",
"$ c #3D3D3D",
"% c #433F3F",
"& c #3F4040",
"* c #424343",
"= c #474848",
"- c #4B4B4B",
"; c #504E4E",
": c #525252",
"> c #5A5656",
", c #5E5E5E",
"< c #646464",
"1 c #6B6B6B",
"2 c #727272",
"3 c #7E7E7E",
"4 c #807F7F",
"5 c #848585",
"6 c #8C8D8D",
"7 c #939494",
"8 c #9D9F9F",
"9 c #A6A5A5",
"0 c #A9A7A7",
"q c #A7A8A8",
"w c #ACACAC",
"e c #B4B4B4",
"r c #B7B8B8",
"t c #BBBCBC",
"y c #E6ADB0",
"u c #FEBEC2",
"i c #BFC0C0",
"p c #C3C5C5",
"a c #CBCDCD",
"s c #DEC2C3",
"d c #CFD1D1",
"f c #D2D5D5",
"g c #D5D8D8",
"h c #DCDDDD",
"j c #FEC3C6",
"k c #FEC4CA",
"l c #FFC9CC",
"z c #F3CED0",
"x c #E2D5D5",
"c c #E8DEDF",
"v c #F2D6D7",
"b c #FBDCDD",
"n c #FEDFE0",
"m c #DFE3E3",
"M c #E2E4E4",
"N c #E9E3E3",
"B c #E5E9E9",
"V c #EBEDED",
"C c #FDE2E3",
"Z c #F2EDED",
"A c #FEECED",
"S c #EEF2F2",
"D c #F4F5F5",
"F c #FDF3F3",
"G c #F6F8F8",
"H c #FCFDFD",
"J c None",
/* pixels */
"JJJJJJJJJJJJJJJJ        JJJJJJJJJJJJJJJJ",
"JJJJJJJJJJJJJJ            JJJJJJJJJJJJJJ",
"JJJJJJJJJJJJw<.           >qJJJJJJJJJJJJ",
"JJJJJJJJJJ9tp7X          .5atqJJJJJJJJJJ",
"JJJJJJJJJtigV9X          .8VgttJJJJJJJJJ",
"JJJJJJJJrgBGG0O          .8BBBhtJJJJJJJJ",
"JJJJJJJrhBDGD9O          X8VBBBhrJJJJJJJ",
"JJJJJJrhGGGHG9X          X8DSBBBhtJJJJJJ",
"JJJJJthGHHHHF0X          X8GGDSVmmtJJJJJ",
"JJJJrhGGHGHHD0O          .8DHGGSBBgtJJJJ",
"JJJ9tVHHGGHHD0o          X8DHGGGSBBi9JJJ",
"JJJtdDHHGHHHD0o          .8DHHHHGSVdtJJJ",
"JJrdVHHHHHGHDe=$$$$$$**&&=eGHHGHHHSMftJJ",
"JqaBSGHHHHHHDMhhhhhhmmmmMmMGHHHHHHSBMfqJ",
"JedSGGHHHGHHHHHHHHHHHHHHHHHHHHHHHHGVBgeJ",
"waMDHGHHHGGDDHHHHHGGHHHGGHGGGDGHHHGVBmfw",
"qfDHHGGHG3==6DHGGHHDGGHHGHH9==1VHHGGVBgw",
"qfGHHHHHGr% @5GHGGHGGHHHHHHa, O<MHHGSBgw",
"wfGHHHHD75$  $VHHGGHGHHHHGw5:  +fHGGSBgq",
"qfGHHHHc#    %VHHGGDGGHHHG;    +gHHGSBgw",
"wfGHHHHB,o  O2DHGGGGDGGHHD3+  X:MHHGDMgw",
"qfGHHHFFc>@#2DDHHGGHHHHHHHD5#@;xFDAGSMgw",
"waDHHAkjjyshVHHHVDGBVHGBHHHDchxkjjjCVBfw",
"JrfGAlkkkkkCHHHV1iD75Ga<MHHHHFlkkkkkvfrJ",
"JqaVZCjuuubFHHHGr<-45;,wDHHHHHCjuuuzNfqJ",
"JJtfSFnnCCAHHHHHG95ia58GHHGHHHDbbbvMgiJJ",
"JJJtgDHHHHHHHHHHHHHHGGHHGGGGGHGGGSVgtJJJ",
"JJJJtgBHHHHHHHHHHHHHGGHHDGGGGGGGDgdtJJJJ",
"JJJJJweMVBMNMMMMBMMMMMMMMMMMMMMMgr0JJJJJ",
"JJJJJJJwwwwwwwwwweewwwwwwwwwwewwwJJJJJJJ"
};
