/* XPM */
static char *onishock[] = {
/* columns rows colors chars-per-pixel */
"40 30 170 2 ",
"   c #000000",
".  c #0B0B0B",
"X  c #100F0F",
"o  c #100F10",
"O  c #131313",
"+  c #1B1B1B",
"@  c #181717",
"#  c #3F1819",
"$  c #1D0A28",
"%  c #211F20",
"&  c #280A38",
"*  c #2D103C",
"=  c #252424",
"-  c #2B2B2B",
";  c #282827",
":  c #302E2F",
">  c #343434",
",  c #3C3C3C",
"<  c #3E3738",
"1  c #431A1B",
"2  c #481F1F",
"3  c #5C2B2C",
"4  c #532A29",
"5  c #54312E",
"6  c #5B3835",
"7  c #613031",
"8  c #723B3C",
"9  c #300A45",
"0  c #390B52",
"q  c #3D204D",
"w  c #4D1F66",
"e  c #52007F",
"r  c #5C3571",
"t  c #603A74",
"y  c #3E4040",
"u  c #444343",
"i  c #4C4C4C",
"p  c #474848",
"a  c #5F504C",
"s  c #545354",
"d  c #5A5A5A",
"f  c #575858",
"g  c #694942",
"h  c #71504A",
"j  c #755B56",
"k  c #626262",
"l  c #6C6C6C",
"z  c #796364",
"x  c #737373",
"c  c #736879",
"v  c #844948",
"b  c #904F4E",
"n  c #965454",
"m  c #995455",
"M  c #A65B5E",
"N  c #AE5F65",
"B  c #8A6C6C",
"V  c #B36566",
"C  c #BC686D",
"Z  c #BA676B",
"A  c #A77977",
"S  c #C56D6E",
"D  c #C96E6E",
"F  c #C4726F",
"G  c #CB6F72",
"H  c #C76F72",
"J  c #C67372",
"K  c #CA7172",
"L  c #CB7679",
"P  c #B7837E",
"I  c #530080",
"U  c #5A0E83",
"Y  c #5C1284",
"T  c #611C87",
"R  c #662589",
"E  c #682989",
"W  c #6F388D",
"Q  c #743F91",
"!  c #75488F",
"~  c #715082",
"^  c #764492",
"/  c #784793",
"(  c #7D5196",
")  c #83579C",
"_  c #886B99",
"`  c #917D9B",
"'  c #887493",
"]  c #875CA1",
"[  c #8C63A4",
"{  c #8E62A8",
"}  c #8E6DA2",
"|  c #9266AD",
" . c #9469AF",
".. c #9874AE",
"X. c #956AB0",
"o. c #986CB3",
"O. c #9F7BB7",
"+. c #A17DB8",
"@. c #838383",
"#. c #8B8C8C",
"$. c #998A82",
"%. c #8F9090",
"&. c #9B9B9B",
"*. c #949494",
"=. c #BE8082",
"-. c #B89797",
";. c #A782BE",
":. c #A88ABC",
">. c #A591B1",
",. c #A995B6",
"<. c #9DA1A1",
"1. c #A4A3A3",
"2. c #ABABAB",
"3. c #B4B5B5",
"4. c #B8B3B2",
"5. c #B7B8B8",
"6. c #BCBDBD",
"7. c #B7AAAA",
"8. c #C78986",
"9. c #C6948D",
"0. c #C99B9E",
"q. c #CDA29A",
"w. c #CBA3A8",
"e. c #D6A6AA",
"r. c #D6B1AA",
"t. c #CDBAB6",
"y. c #D3B9B6",
"u. c #E5B5BC",
"i. c #AA85C0",
"p. c #AC8BC1",
"a. c #B497C8",
"s. c #BCACCA",
"d. c #C2B2D0",
"f. c #D1BEDC",
"g. c #FFBEC2",
"h. c #C4C4C4",
"j. c #C6C9C8",
"k. c #CACDCD",
"l. c #D5C6C5",
"z. c #CED1D1",
"x. c #D2D5D5",
"c. c #DAD5D3",
"v. c #D5D9D9",
"b. c #DDDEDE",
"n. c #E0CAC7",
"m. c #FEC2C5",
"M. c #FEC5CB",
"N. c #F6C1C8",
"B. c #F3CED0",
"V. c #E6DCDA",
"C. c #F2D6D6",
"Z. c #FBDCDD",
"A. c #E5E0DE",
"S. c #D6C3E1",
"D. c #FDDFE0",
"F. c #DEE2E2",
"G. c #E3E5E5",
"H. c #E8E1E2",
"J. c #E6EAEA",
"K. c #EBEDED",
"L. c #FFE1E2",
"P. c #F4EDEC",
"I. c #FFECED",
"U. c #EAF0EE",
"Y. c #EEF2F2",
"T. c #F4F5F5",
"R. c #FDF6F6",
"E. c #F6F9F9",
"W. c #FDFEFE",
"Q. c None",
/* pixels */
"Q.Q.Q.Q.Q.Q.Q.Q.Q.Q.Q.Q.Q.Q.Q.Q.                Q.Q.Q.Q.Q.Q.Q.Q.Q.Q.Q.Q.Q.Q.Q.Q.",
"Q.Q.Q.Q.Q.Q.Q.Q.Q.Q.Q.Q.Q.Q.                        Q.Q.Q.Q.Q.Q.I I I I I Q.Q.Q.",
"Q.Q.Q.Q.Q.Q.Q.Q.Q.Q.Q.Q.2.x                         k 2._ Q.Q.Q.I I I I I Q.Q.Q.",
"Q.Q.Q.Q.Q.Q.Q.Q.Q.Q.Q.6.j.%..                       #.j.>.W E Q.I I I I I Q.Q.Q.",
"Q.Q.Q.Q.Q.Q.Q.Q.Q.6.6.v.K.2..                       <.U.s.[ ) ^ I I I I I Q.Q.Q.",
"Q.Q.Q.Q.Q.Q.Q.Q.5.v.J.T.T.2..                       <.K.d.O..._ Y I I I I Q.Q.Q.",
"Q.Q.Q.Q.Q.Q.Q.3.b.J.T.E.T.2..                     . <.Y.d.+.+.:./ U I I I Q.Q.Q.",
"Q.Q.Q.Q.Q.Q.3.b.E.E.E.W.T.2..                       <.E.f.+.+.:.{ / Y I I Q.Q.Q.",
"Q.Q.Q.Q.Q.5.b.E.W.W.W.W.T.2..                       <.E.S.;.;.p. .{ / U I Q.Q.Q.",
"Q.Q.Q.Q.5.v.E.E.W.E.W.W.T.2..                     . <.E.S.i.:.a. .X.[ ^ T Q.Q.Q.",
"Q.Q.Q.Q.6.K.W.W.E.T.T.W.E.2..                       1.W.S.p.i.a.o.X. .( R Q.Q.Q.",
"Q.Q.Q.5.x.T.E.x.%.d i x <.%.X                       <.z.` r t ~ ( |  .] ^ R Q.Q.",
"Q.Q.3.k.Y.K.@.= . + + O X = = > , , , , , , , , , > p - $ 9 9 & 0 w !  .] ( Q.Q.",
"Q.2.z.J.J.x O + x 3.j.&.6 O @ @.b.b.b.b.F.G.J.G.v.f o + c ,.>.' q & * _ a.,.2.Q.",
"Q.2.x.E.5.@ + @.E.W.W.W.F.i o > A.W.W.W.W.W.W.W.&.O + &.W.W.W.W.6.> . s F.v.3.Q.",
"2.k.G.Y.@.. s K.W.W.W.W.E.h.= + j.W.E.E.W.W.W.T.d . l T.W.W.W.W.W.*.O > z.G.x.2.",
"2.x.T.T.s . *.W.W.W.W.W.W.K.u O 3.W.E.E.E.E.W.G.> O 6.W.W.W.W.W.W.x.; = j.K.v.2.",
"1.x.E.E.d . <.W.W.W.W.W.W.T.s + 2.W.W.W.W.W.W.J.> @ h.W.W.W.W.W.W.b.> - h.J.v.2.",
"2.x.E.W.@.. l R.W.W.W.W.W.c.< = 3.G.c.c.c.c.V.V.f . &.W.W.W.W.W.W.h.- > j.J.v.2.",
"2.x.E.W.5.O @ 1.W.W.W.W.T.l o p $.g 5 5 5 5 6 h g o : k.W.W.W.W.K.f O d F.J.v.2.",
"2.x.E.W.Y.d o : &.v.G.j.l O : 4.j 1 1 # # # 1 2 j > o i h.K.K.k.k O , j.Y.J.v.2.",
"1.x.E.W.W.z.u O O - > + O > 2.A.6 1 1 2 4 3 7 3 B 1.- o + , 6 % O > 4.R.Y.J.v.2.",
"2.z.T.W.W.I.e.B < % = > x v.W.l.3 4 8 v b n n n P Y.s.k - + @ : z e.N.Z.K.G.x.2.",
"Q.3.x.T.I.M.M.M.u.e.0.y.T.W.W.t.v n M V V Z C C P P.W.E.z.2.-.w.N.M.M.M.C.v.3.Q.",
"Q.1.z.J.T.D.g.g.g.g.Z.R.W.W.W.y.V S D K K K L L 8.L.W.W.W.R.L.M.g.g.g.B.H.z.2.Q.",
"Q.Q.6.x.U.R.L.D.L.L.R.W.W.W.W.r.K K K G K G D K L A.W.W.W.W.E.Z.Z.L.C.H.v.h.Q.Q.",
"Q.Q.Q.6.v.R.W.W.W.W.W.W.W.W.W.q.F D G D G G K K J n.E.E.E.E.E.E.E.Y.J.x.6.Q.Q.Q.",
"Q.Q.Q.Q.5.v.G.W.W.W.W.W.W.W.E.9.F L G D D G K K F n.E.E.W.E.E.E.Y.v.x.6.Q.Q.Q.Q.",
"Q.Q.Q.Q.Q.2.3.G.K.K.G.G.G.G.b.8.F K F D D D K J J y.G.J.J.G.G.F.v.3.2.Q.Q.Q.Q.Q.",
"Q.Q.Q.Q.Q.Q.Q.2.2.2.2.2.2.2.2.P K K K S F J D J J -.2.2.2.2.2.2.2.Q.Q.Q.Q.Q.Q.Q."
};
