/* XPM */
static char *rcp0845460281787[] = {
/* columns rows colors chars-per-pixel */
"40 40 159 2 ",
"   c #1C1611",
".  c #1E1916",
"X  c #1E1B19",
"o  c #221B16",
"O  c #2A1E14",
"+  c #231E1A",
"@  c #281F18",
"#  c #26211D",
"$  c #29221D",
"%  c #322010",
"&  c #31261D",
"*  c #262321",
"=  c #2A2522",
"-  c #2D2925",
";  c #2C2A28",
":  c #332C26",
">  c #3A2F25",
",  c #322D2A",
"<  c #392F28",
"1  c #3B3027",
"2  c #34302D",
"3  c #3C342D",
"4  c #353331",
"5  c #3D3631",
"6  c #3E3834",
"7  c #3F3C39",
"8  c #442E1C",
"9  c #412F21",
"0  c #443426",
"q  c #483423",
"w  c #42372E",
"e  c #47392E",
"r  c #4B3A2B",
"t  c #413730",
"y  c #443B34",
"u  c #4A3E34",
"i  c #453E39",
"p  c #483F38",
"a  c #5E422A",
"s  c #4D4036",
"d  c #47413D",
"f  c #4B433C",
"g  c #534334",
"h  c #5B4533",
"j  c #5D4937",
"k  c #52463C",
"l  c #594739",
"z  c #56493E",
"x  c #5C4B3D",
"c  c #624934",
"v  c #634E3D",
"b  c #66513E",
"n  c #4D4641",
"m  c #4F4844",
"M  c #4D4A48",
"N  c #504740",
"B  c #534B44",
"V  c #5A4E44",
"C  c #554E49",
"Z  c #584F48",
"A  c #5D5145",
"S  c #56504B",
"D  c #5B534C",
"F  c #5D5651",
"G  c #5F5853",
"H  c #604F41",
"J  c #625244",
"K  c #6A5746",
"L  c #62554B",
"P  c #66594D",
"I  c #6A5A4C",
"U  c #735942",
"Y  c #745F4C",
"T  c #605751",
"R  c #625A54",
"E  c #6A5E54",
"W  c #645E59",
"Q  c #75604E",
"!  c #6D6055",
"~  c #66605C",
"^  c #6A615A",
"/  c #696059",
"(  c #6C6259",
")  c #69615C",
"_  c #68615D",
"`  c #69625C",
"'  c #69625D",
"]  c #6A635D",
"[  c #68625E",
"{  c #69635E",
"}  c #68635F",
"|  c #69635F",
" . c #6A635E",
".. c #6B635E",
"X. c #6A635F",
"o. c #6A645F",
"O. c #6C655F",
"+. c #6A625C",
"@. c #746355",
"#. c #796350",
"$. c #73675E",
"%. c #72655B",
"&. c #73685E",
"*. c #7B6B5D",
"=. c #676361",
"-. c #6B6560",
";. c #6A6561",
":. c #6B6561",
">. c #6B6662",
",. c #6C6460",
"<. c #6C6661",
"1. c #6E6660",
"2. c #6E6761",
"3. c #6C6662",
"4. c #6D6762",
"5. c #6C6763",
"6. c #6E6762",
"7. c #6B6561",
"8. c #6F6862",
"9. c #6E6864",
"0. c #6E6965",
"q. c #6E6864",
"w. c #716760",
"e. c #716861",
"r. c #736A63",
"t. c #716A64",
"y. c #726B65",
"u. c #716B67",
"i. c #736C67",
"p. c #726B65",
"a. c #706B68",
"s. c #736D69",
"d. c #716D6A",
"f. c #746E69",
"g. c #746E69",
"h. c #7E7167",
"j. c #77706B",
"k. c #73706F",
"l. c #74706E",
"z. c #76716E",
"x. c #76716D",
"c. c #78726F",
"v. c #7A726C",
"b. c #777472",
"n. c #797573",
"m. c #7D7773",
"M. c #7B7674",
"N. c #7F7975",
"B. c #7E7A76",
"V. c #7D7976",
"C. c #857669",
"Z. c #807A76",
"A. c #807A76",
"S. c #827C78",
"D. c #827E7A",
"F. c #87827E",
"G. c #88827E",
"H. c #888481",
"J. c #888380",
/* pixels */
"3 * * * * ; # + # + + # = = * # # $ $ $ $ = * + + = 5 0 q 8 r w 6 t t 7 6 5 5 6 ",
"F.,.- , # i k.n.n.;.z.F B N S k k f D D p w $ = , ( N.) ^ R W #.,.8.m.Z.$.y.f.v.",
",.G.F = 2 M.H.S.y.z.) n n d C N f p p D z ) n * S d.i.G D D S L W ^ E I E W ) R ",
"F ) F - M d.) o.R D D n d f N p t y t f n Z.Z , F R W F G S F L S B z J W ;.R ^ ",
"e.,.D * n =.W D W R C C d f n n y t f p d Z ) - F N.,.) a.;.W G D E F I G W R ,.",
") e.G = M d.G D T R W C C B n B f f f n k D D - F y.;.G T T ~ ;.W ~ F D O.,.F R ",
"~ y.C # d M.D N n C N i M N f B n n i B B B C - F b.W W W ~ ~ G ) 0.R ^ ,.,.) T ",
") j.n = d B B B n d p d i p n M C N N N B B C - F o.d.0.W T F W ( o.o.^ ;.~ R F ",
"A 8.N = i d p f N B f f p f d B F C C C n V T = R z.z.~ G W ,.;.~ ) ~ R ;.;.~ T ",
"D T m # 5 f i f k B d m S F D R B F B n f B n - M d.;.W G F R D ) W ;.~ ;.F N S ",
"F R p $ : f i f f B M C C D T R F R S f B C N = S W 0.T ;.R S ) T W F ;.D F D F ",
"B F B = 3 u p s B C k S D G ( W ~ W N N N C N - S G ) ~ ) R =.W ~ ;.R ~ ~ G B F ",
"F D f $ 3 N h z B S W ) T W 8.d.~ W F B f D B - B W W o.~ F ) W R D G Z R G Z F ",
"G ;.N $ d B V B C g L P o.o.;.Z.,.S B B C R f - B 8.~ G ) ;.D G G F W T F C V D ",
"F y.C $ f S V D C f ,.E E i.r.e.N.R F B W C f = d R D C T T y.T C B D B B B D C ",
"N O.N O y V S F R N F 0.,.z.S.^ ^ y.G W D d.N = i D D N V R W C S S B B S D D C ",
"S T C # 5 D D G G S D W d.) 8.v.^ x W R C F F = t B S B D D C F A Z B m R F F D ",
"S %.i . t S F G R W e.) y.,.N.Z.T V J T N C d + 3 k K T D B D D V B D D Z F L k ",
"f t o . # D F F D F T ) O.y.,.^ E K k f i f , + o 3 f d f N B f f f f p s f f f ",
"+ + + + X = 5 i p f m n p n d 5 u 3 y 1 < & $ ; # O + + + + + + o + o + o + $ + ",
"d M B n f d i f f B > O     . - t i 6 t t t 6 6 i i i i y t 6 = $ + $ 3 d d f p ",
"%.0.0.o.R ) j.y.w.C.h.s + + , ~ E E T R D D F T ~ O.O.P R ^ ^ O.: * d B B D F i.",
"S T V D B z W D ;.0.Y E # X S R D D B S B S C C D T T F B L R E N 5 y.0.M B f R ",
"B R V B k L F D E ^ *.%.+ + d C C R C B F B C C S f n B f V B U D d n f N i n B ",
"N d j x S F W L W ,.V E # X d n B S B n D C C m d N f s s j J E C i B i N p n B ",
"f c j V D D D T ,.) v.) + o i B g B N M n N F S d N C p s r r k k 6 D Z C f B t ",
"p p l V K P E W W W ,.) # + y B f f f p f g n n B m d f t f D ^ l k W C C B n t ",
"K c z A v D E W ,.;.i.%.# o f F k S f p s e p k n B N B f f T @.B p W W C B f D ",
"L k K L J &.! 8.e.g.J.f.$ + p f B D B N l p f g s f f C C D u e.V t R L D D T V ",
"b D W F D E I W d.f.Z.v.+ + D Z N n D S B u n f k N z B n h D O.B u T E W T A S ",
"J F F E S E y.;.W N.f.y.+ o B z C B L R f f N N f B B C D G T i.H 9 Q v W B C D ",
"x v h J x F P ~ y.v.S.) @ % m Z S F R S B C B N N n N M V L T E v z J I D V x V ",
"N a j x B F V F ;.,.v.v.+ O ;.W D F D D S B C l n N n B N ^ D $.x u E E C B D L ",
"g f D k z S T W L ~ O.f.+ o G e.G F G f S D n F C k B B l L L E V u S h V N p f ",
"f N B S S D D F ) ^ 0.y.+ + F R W D C D S G D V D C V V z D j E B 3 V C C f f i ",
"p p B Z C F D W ) @.z.0.+ X S Z.F D S D G D F C C G B V B g L E B t B S f p p u ",
"D V k S ~ ;.B W T R 8.^ + . G ^ ) m B S F F R C F C C V j N B W V p D F B k s d ",
"B B N V D ^ e.i.y.8.~ B + . 6 N R C N C B D D F F S D V J D L S 3 = @.) V T B T ",
"D k f N N S N S N Z n # # # + i n t 3 p s N N k T N t p z f S 3 o   3 V D n t p ",
"o . . o o o . . . . . X , 4 # o o o o o o o o o O o o o o o o + = + o . X . o o "
};
