/* XPM */
static char *wall[] = {
/* columns rows colors chars-per-pixel */
"40 40 187 2 ",
"   c #1D0500",
".  c #200700",
"X  c #270E00",
"o  c #280F00",
"O  c #2B1201",
"+  c #341C0B",
"@  c #331703",
"#  c #3E200B",
"$  c #4A280F",
"%  c #45250D",
"&  c #4B2910",
"*  c #452914",
"=  c #4E301A",
"-  c #58371E",
";  c #52331B",
":  c #432F20",
">  c #4A3526",
",  c #543825",
"<  c #623E24",
"1  c #5D402B",
"2  c #5F4939",
"3  c #6A4C36",
"4  c #624530",
"5  c #724C31",
"6  c #7B5437",
"7  c #7D563A",
"8  c #775C3E",
"9  c #7F583C",
"0  c #775237",
"q  c #5F4E41",
"w  c #604F43",
"e  c #6B594C",
"r  c #655244",
"t  c #795B45",
"y  c #705949",
"u  c #785F4C",
"i  c #715F52",
"p  c #7C604B",
"a  c #865A32",
"s  c #83624B",
"d  c #8A664C",
"f  c #90694D",
"g  c #876E5B",
"h  c #8D715B",
"j  c #9A7052",
"k  c #A07759",
"l  c #A67B59",
"z  c #816F62",
"x  c #867060",
"c  c #907D69",
"v  c #987F6E",
"b  c #9E816B",
"n  c #8F8278",
"m  c #928074",
"M  c #94887F",
"N  c #91857E",
"B  c #A1846E",
"V  c #AA8162",
"C  c #B18768",
"Z  c #B38868",
"A  c #BD916E",
"S  c #A28A75",
"D  c #A68C7A",
"F  c #A88E7B",
"G  c #B18F78",
"H  c #BF9778",
"J  c #C8976B",
"K  c #C19B7C",
"L  c #C89F7C",
"P  c #CE9C70",
"I  c #D19F71",
"U  c #CEA37C",
"Y  c #D9A574",
"T  c #D4A77D",
"R  c #E6AF75",
"E  c #E2AF7C",
"W  c #E7B17A",
"Q  c #E8B27B",
"!  c #948880",
"~  c #9F9186",
"^  c #9D9188",
"/  c #A4958A",
"(  c #A59385",
")  c #B29986",
"_  c #B49E8E",
"`  c #AA9D94",
"'  c #B19F93",
"]  c #B9A595",
"[  c #BFA897",
"{  c #B7A79B",
"}  c #BBB1AA",
"|  c #C19C82",
" . c #CCA686",
".. c #C8A68B",
"X. c #C7A488",
"o. c #DEB289",
"O. c #DEB083",
"+. c #CBAB94",
"@. c #CFAF98",
"#. c #C5AA91",
"$. c #CDB09A",
"%. c #D3B59A",
"&. c #D9B794",
"*. c #EABA86",
"=. c #E7B888",
"-. c #EABB8B",
";. c #E3B688",
":. c #EBBE91",
">. c #C0AEA2",
",. c #C5B1A4",
"<. c #C3B5AA",
"1. c #CBB9AA",
"2. c #D3B9A5",
"3. c #DCBEA5",
"4. c #D7BDAA",
"5. c #D8BFAC",
"6. c #C1BAB6",
"7. c #C4BEB9",
"8. c #EDC396",
"9. c #E6C39E",
"0. c #EEC59B",
"q. c #EFC99E",
"w. c #DCC2AA",
"e. c #DBC0A7",
"r. c #CCC2BB",
"t. c #C6C0BB",
"y. c #DAC3B2",
"u. c #D0C6BE",
"i. c #DBCBBB",
"p. c #E7CFA3",
"a. c #E9CAAD",
"s. c #EDC9A2",
"d. c #F1CEA7",
"f. c #F0CDA8",
"g. c #E7D0A4",
"h. c #E9D0A5",
"j. c #EBD4AB",
"k. c #F1D0AE",
"l. c #ECCDB0",
"z. c #EFDAB7",
"x. c #E7D4BC",
"c. c #F1D2B1",
"v. c #F3DAB6",
"b. c #F4DBBA",
"n. c #F2D6B9",
"m. c #C8C3C0",
"M. c #D3CECB",
"N. c #DCD4CD",
"B. c #E1CEC1",
"V. c #E5D4C5",
"C. c #ECDAC3",
"Z. c #E8D7CA",
"A. c #EDDFCE",
"S. c #E2D4CC",
"D. c #F5DFC5",
"F. c #F2DECB",
"G. c #E6DDD5",
"H. c #EADCD0",
"J. c #EADFD8",
"K. c #F5E1C2",
"L. c #F6E5CC",
"P. c #F9E6C8",
"I. c #F6E8CD",
"U. c #FBE9CD",
"Y. c #E7E0DA",
"T. c #EDE3DB",
"R. c #F6E4D3",
"E. c #FAE7D3",
"W. c #F6EAD3",
"Q. c #FAEAD2",
"!. c #FAEEDD",
"~. c #F3E9DC",
"^. c #FCF1DD",
"/. c #EFE9E5",
"(. c #F4EDE4",
"). c #FAEFE1",
"_. c #F1EDEA",
"`. c #F7F1E6",
"'. c #FCF4E3",
"]. c #F6F0EC",
"[. c #FCF5EB",
"{. c #FEF9ED",
"}. c #F7F6F6",
"|. c #FAF6F2",
" X c #FFFBF3",
".X c #FFFEFB",
"XX c None",
/* pixels */
"XXXXXXXXXXXXXXXXXXXXXXXXXXXXXXXXXXXXXXXXXXXXXXXXXXXXXXXXXXXXXXXXXXXXXXXXXXXXXXXX",
"XXXXXXXXXXXXXXXXXXXXXXXX9 9 9 9 9 9 9 9 9 9 9 9 9 9 9 9 XXXXXXXXXXXXXXXXXXXXXXXX",
"XXXXXXXXXXXXXXXX6 XX7 _ ,.} $.{ { $.,.} } [ { $.,.} $.} _ 9 XX6 XXXXXXXXXXXXXXXX",
"XXXXXXXXXXXXXXb F F F Y. X[.[.[.{.[.[.[.{.[.{.{.[.[.`. XG.F D F b XXXXXXXXXXXXXX",
"XXXXXXXXXX3 s 1. X}.}.Q.v.p.h.p.g.g.g.g.g.g.p.p.g.g.p.v.Q.}. X.X<.s 3 XXXXXXXXXX",
"XXXXXXXX3 N._.(.P.j.j.j.g.p.p.p.g.g.g.p.p.g.p.p.g.g.p.h.j.j.j.P.!._.N.3 XXXXXXXX",
"XXXXXXp u.!.L.z.h.p.q.k.K.I.I.I.I.I.I.I.I.I.I.I.I.I.I.K.j.g.q.j.z.P.^.r.p XXXXXX",
"XXXXb <.[.b.h.h.z.z.K.I.'.{.{.{.{.{.{.[.{.{.{.[.{.[.{.'.W.K.z.j.h.h.K.[.<.v XXXX",
"XX5 ]  XP.h.h.b.U.^.[.{. X X X X X X X X X X X X{. X X X X'.^.U.v.h.h.P. X] 5 XX",
"XX& S ^.P.h.v.U.[.{. X X X X X X X X X X X X X X X X X X X X{.[.P.v.h.K. X/ $ XX",
"XXO M  XI.j.K.'. X X X X X X X X X X X X X X X X X X X X X X X X'.K.g.L..X! O XX",
"XXo ! .X`.j.W. X X X X X X X X X X X X X X X X X X X X X X X X X XW.j.[..X! o XX",
"XXO c [.{.v.^. X X X X X X X X X X X X X X X X X X X X X X X X X X^.b. X[.c O XX",
"XXO p w..XQ.'. X X X X X X X X X X X X X X X X X X X X X X X X X X^.Q..Xw.t O XX",
"XXO 1 ) ]..X{.[.{.{. X X X X X X X X X X X X X X X X X X X{. X{.[.{..X|._ 1 O XX",
"XXO n V.K ]..X{.'.'.'.{. X X X X X X X X X X X X X X X X{.'.'.'.}..X].H V.n o XX",
"- ` { ] B.X.o.D..X.X.X{.'.'.'.'.'.'.'.'.'.'.'.'.'.[.'.'.{..X.X.XD.o.X.B.#.x XXXX",
"* 7.4.L |.y.9.f.c.c.c.). X X X X X X X X X X X X X X X X^.c.c.c.f.9.y.|.x $ XXXX",
"+ 6.E.s.H.}..Xb.*.*.*.n.W.R.R.R.R.R.R.R.R.R.R.R.W.R.R.R.b.*.*.*.b..X.XJ.4   XXXX",
"+ } .XH.K T.[.'.'.^.'.0.R Q W W R W W W W W W W W W W R 8.^.'.'.[.|.J.Z 4 : XXXX",
"XXd <..XC.K Y b..X.X.X!.Q.Q.Q.Q.Q.Q.Q.Q.Q.Q.Q.Q.Q.Q.Q.Q.!..X.X.Xb.Y Z f u./ & XX",
"XX% ~ .X}.x.D.3. .:.:.!..X.X.X.X.X.X.X.X.X.X.X.X.X.X.X.X).:.:. .5.E.B.l Z.^ @ XX",
"XXX h U..X.X XC.&.s.f.3.2.4.c.c.c.c.c.c.c.c.c.c.c.c.e.2.3.s.0.3.J._.4.4.|.N . XX",
"XXXXa T V.R.'.{.{.{. X%.H U *.*.*.*.*.*.*.*.*.*.*.*.U K 2.{.{.!.A.y...|.Y./ r XX",
"XXXX0 d J E F.|.[.[.'.'.'.'.^.'.'.'.'.'.'.'.'.'.'.'.'.`.[.[.[.0.J ..'..XD ,.m.; ",
"XXXXO y _.`.+.P W *.[..X.X.X.X.X.X.X X.X.X X.X.X.X.X.Xb.W Q *.D.~.!..X.X| e.7.# ",
"XXXX  , +.|./.C.b.v.8.:.:.:.:.:.-.:.:.:.:.:.:.:.:.:.:.k.K.b.n.!. X.X[.#.y.|.} + ",
"XXXXz m j @.l.R..X Xn.s.0.q.q.q.q.q.q.q.q.0.q.0.0.q.0.K. X X.X XR.a.2.%.(.J./ + ",
"XX% / H.k K ;.l.H.R.R.[. X X X X X{. X{.{. X{. X{. X{.[.'.R.R.R.c.;. .!..X` < XX",
"XXO ! ).=.T..Xy.J R Q L.[.[.`.[.[.[.[.[.|.[.[.[.[.[.[. XL.Q W W c.{.'..X.Xv O XX",
"XXX M .X~.B N..X(.Q.R.8.W Q Q Q Q Q Q Q Q Q Q Q Q Q W W 0.^.Q.Q.!.[..X.X@.3 O XX",
"XXXXg ,.}.y.) F 4..X.X).D.b.b.b.b.b.b.b.b.b.b.b.b.b.b.b.K.[..X.X.XT.| | k 0 XXXX",
"XXXX$ g .X X1.#.2.e.a.c.Q..X.X.X X.X.X X.X X X.X.X X.X.X.X{.n.e.2.2.2.4.p = XXXX",
"XXXXXXq t.}. X XH.U =.*.c.Q.R.R.R.R.R.R.R.R.R.R.R.R.R.A.V.M.-.U K 4.}.m.w XXXXXX",
"XXXXXXXX> M._.].`.'.^.{.c.W W W W W W Q Q W R W W W W I V b R.[.`._.M.> XXXXXXXX",
"XXXXXXXXXX> t 1..X.X.X[.^.Q.Q.I.Q.Q.Q.Q.Q.Q.Q.Q.U.Q.Q.I.W._.}..X1.t > XXXXXXXXXX",
"XXXXXXXXXXXXXXy e i M J..X.X.X.X.X.X.X.X.X.X.X.X.X.X.X.XY.D i e e XXXXXXXXXXXXXX",
"XXXXXXXXXXXXXXXX. XX5 m M M ! ! ! ! ! ! ! ! ! ! ! ! ! ! m 5 XX. XXXXXXXXXXXXXXXX",
"XXXXXXXXXXXXXXXXXXXXXXXXX X X o X X o X o X o o o X o X XXXXXXXXXXXXXXXXXXXXXXXX",
"XXXXXXXXXXXXXXXXXXXXXXXXXXXXXXXXXXXXXXXXXXXXXXXXXXXXXXXXXXXXXXXXXXXXXXXXXXXXXXXX"
};
